<svg xmlns="http://www.w3.org/2000/svg" width="594.78" height="64.2" viewBox="0 0 594.78 64.2"><path d="M22.44,17.12a23.176,23.176,0,0,0-4.38.66,13.175,13.175,0,0,0-3.87,1.62,10.327,10.327,0,0,0-2.91,2.76,9.4,9.4,0,0,0-1.56,4.2q.48-.18,1.02-.39A3.465,3.465,0,0,1,12,25.76a2.69,2.69,0,0,1,1.92.81,3.06,3.06,0,0,1,.84,2.31,4.154,4.154,0,0,1-1.17,2.97,4.3,4.3,0,0,1-3.27,1.23,4.212,4.212,0,0,1-3.45-1.5A5.326,5.326,0,0,1,5.64,28.1a9.011,9.011,0,0,1,1.47-4.86,11.6,11.6,0,0,1,4.23-3.9,18.913,18.913,0,0,1,5.76-2.07,34.669,34.669,0,0,1,5.34-.63Zm14.4,0a23.176,23.176,0,0,0-4.38.66,13.175,13.175,0,0,0-3.87,1.62,10.327,10.327,0,0,0-2.91,2.76,9.4,9.4,0,0,0-1.56,4.2q.48-.18,1.02-.39a3.465,3.465,0,0,1,1.26-.21,2.69,2.69,0,0,1,1.92.81,3.06,3.06,0,0,1,.84,2.31,4.154,4.154,0,0,1-1.17,2.97,4.3,4.3,0,0,1-3.27,1.23,4.212,4.212,0,0,1-3.45-1.5,5.326,5.326,0,0,1-1.23-3.48,9.011,9.011,0,0,1,1.47-4.86,11.6,11.6,0,0,1,4.23-3.9,18.913,18.913,0,0,1,5.76-2.07,34.669,34.669,0,0,1,5.34-.63ZM88.08,11.6q-1.56.36-3.03.78a11.6,11.6,0,0,0-2.85,1.26,15.353,15.353,0,0,1,3.15,1.68,12.414,12.414,0,0,1,2.55,2.34,10.782,10.782,0,0,1,1.71,2.94,9.685,9.685,0,0,1,.63,3.54,10.905,10.905,0,0,1-1.23,5.31,11.5,11.5,0,0,1-3.24,3.75,14.4,14.4,0,0,1-4.5,2.25,17.288,17.288,0,0,1-5.01.75,9.863,9.863,0,0,1-2.28-.27,7.57,7.57,0,0,1-2.07-.81,5,5,0,0,1-1.53-1.35,3.089,3.089,0,0,1-.6-1.89,2.622,2.622,0,0,1,.93-2.07A3.392,3.392,0,0,1,73.02,29a3.331,3.331,0,0,1,2.46.96,4.045,4.045,0,0,0-1.29,1.5,4.235,4.235,0,0,0-.45,1.92,1.966,1.966,0,0,0,.45,1.35,1.629,1.629,0,0,0,1.29.51,4.19,4.19,0,0,0,3.09-1.5,15.015,15.015,0,0,0,2.46-3.6,22.257,22.257,0,0,0,1.65-4.44,16.421,16.421,0,0,0,.6-3.96,8.182,8.182,0,0,0-.9-3.87,7.628,7.628,0,0,0-2.34-2.73,33.677,33.677,0,0,0-6.33,6.81q-2.55,3.69-4.68,7.53T64.86,37.1A42.441,42.441,0,0,1,60,44.24a34.632,34.632,0,0,1-6.72,6.09A33.623,33.623,0,0,1,43.5,54.8v.12q1.26.18,2.82.33t3.18.27q1.62.12,3.12.18t2.58.06a51.221,51.221,0,0,0,8.61-.72A33.961,33.961,0,0,0,72,52.55a32.69,32.69,0,0,0,7.62-4.83,37.352,37.352,0,0,0,6.84-7.74l.54.3a63.171,63.171,0,0,1-5.94,7.35,32.374,32.374,0,0,1-6.33,5.22,26.133,26.133,0,0,1-7.23,3.09,34.132,34.132,0,0,1-8.64,1.02q-2.76,0-5.46-.21t-4.98-.48q-2.28-.27-3.93-.51t-2.31-.36q-2.28.48-4.65.78a42.024,42.024,0,0,1-5.25.3,14.279,14.279,0,0,1-5.07-.72q-1.83-.72-1.83-1.74,0-1.5,2.1-1.5a27.526,27.526,0,0,1,3.36.24q1.92.24,3.9.57t3.81.69q1.83.36,3.15.54a14.225,14.225,0,0,0,4.29-2.37,22.281,22.281,0,0,0,3.6-3.75,53.028,53.028,0,0,0,3.42-5.07q1.71-2.85,3.69-6.33t4.23-6.99a70.784,70.784,0,0,1,4.83-6.66,40.427,40.427,0,0,1,5.61-5.64A25.026,25.026,0,0,1,78,13.82a14.069,14.069,0,0,0-3.93-1.14,28.668,28.668,0,0,0-4.41-.36,34.358,34.358,0,0,0-19.62,6.36,25.15,25.15,0,0,0-6.72,7.17,17.161,17.161,0,0,0-2.58,9.21,10.9,10.9,0,0,0,.27,2.4,6.173,6.173,0,0,0,.9,2.13,5.157,5.157,0,0,0,1.62,1.53,4.487,4.487,0,0,0,2.37.6,6.509,6.509,0,0,0,4.02-1.26,10.349,10.349,0,0,0,2.76-3.12,14.877,14.877,0,0,0,1.59-3.93,15.622,15.622,0,0,0,.51-3.69,17.3,17.3,0,0,0-.21-2.97,20.776,20.776,0,0,0-.51-2.19l.66-.06q.24.96.51,2.13a14.239,14.239,0,0,1,.27,3.09,17.6,17.6,0,0,1-.78,4.98,16.549,16.549,0,0,1-2.34,4.86,13.08,13.08,0,0,1-3.99,3.69,10.857,10.857,0,0,1-5.73,1.47,8.866,8.866,0,0,1-6.42-2.37,8.383,8.383,0,0,1-2.46-6.33,15.085,15.085,0,0,1,1.8-7.29,23.5,23.5,0,0,1,4.74-6.06,33.035,33.035,0,0,1,6.75-4.8,51.206,51.206,0,0,1,7.83-3.45,55.021,55.021,0,0,1,7.95-2.1,39.8,39.8,0,0,1,7.11-.72,35.262,35.262,0,0,1,5.94.42,31.836,31.836,0,0,1,4.26,1.02q.3-.12,1.08-.42t1.86-.6q1.08-.3,2.34-.54a13.133,13.133,0,0,1,2.46-.24Zm24.54,28.98q-1.38,1.98-3.09,3.99t-3.87,4.11a36.082,36.082,0,0,1-8.04,6,18.482,18.482,0,0,1-8.7,2.04q-4.14,0-6.3-1.92a7.074,7.074,0,0,1-2.16-5.58,10.962,10.962,0,0,1,1.8-6,19.229,19.229,0,0,1,4.53-4.92,24.191,24.191,0,0,1,5.94-3.36,16.681,16.681,0,0,1,6.09-1.26,10.584,10.584,0,0,1,4.74.93,3.151,3.151,0,0,1,1.86,3.03,4.534,4.534,0,0,1-2.04,3.66,20.189,20.189,0,0,1-4.83,2.67,42.474,42.474,0,0,1-5.61,1.8q-2.82.69-4.44,1.05-.12.6-.18,1.2t-.06,1.2a9.529,9.529,0,0,0,.24,2.13,4.919,4.919,0,0,0,.81,1.83,4.216,4.216,0,0,0,1.5,1.26,5,5,0,0,0,2.31.48,11.4,11.4,0,0,0,6.06-2.07,44.41,44.41,0,0,0,6.54-5.19,50.239,50.239,0,0,0,3.69-3.96q1.59-1.92,2.67-3.48Zm-13.2-4.5a1.485,1.485,0,0,0-1.68-1.68,4.48,4.48,0,0,0-2.85,1.35,17.277,17.277,0,0,0-2.82,3.24,30.353,30.353,0,0,0-2.25,3.87,13.516,13.516,0,0,0-1.2,3.3,16.44,16.44,0,0,0,4.53-1.65,15.708,15.708,0,0,0,3.42-2.49,9.99,9.99,0,0,0,2.13-2.94A7.15,7.15,0,0,0,99.42,36.08ZM101.04,56l12.12-21.36,8.64-.24-9.18,13.56.12.12a58.258,58.258,0,0,1,6.15-7.62,16.73,16.73,0,0,1,5.01-3.78,15.769,15.769,0,0,1,1.5-1.62,4.84,4.84,0,0,1,1.71-.96,12.14,12.14,0,0,1,2.82-.51q1.77-.15,4.83-.27a19.639,19.639,0,0,0-1.44,1.62A16.289,16.289,0,0,0,132,36.86a12.529,12.529,0,0,0-.99,2.1,6.165,6.165,0,0,0-.39,2.1,4.564,4.564,0,0,0,.63,2.34,2.154,2.154,0,0,0,2.01,1.08,4.5,4.5,0,0,0,1.8-.39,8.6,8.6,0,0,0,1.74-1.02,13.154,13.154,0,0,0,1.59-1.41q.75-.78,1.35-1.5l.42.36q-.42.48-1.2,1.41a10.594,10.594,0,0,1-2.07,1.83,13.859,13.859,0,0,1-3.18,1.59,13.241,13.241,0,0,1-4.53.69,7.464,7.464,0,0,1-2.64-.45,6.338,6.338,0,0,1-2.01-1.17,5.158,5.158,0,0,1-1.26-1.68,4.748,4.748,0,0,1-.45-2.04,6.753,6.753,0,0,1,.48-2.82v-.12a16.475,16.475,0,0,0-3.93,3.18,53.706,53.706,0,0,0-4.14,4.89q-2.01,2.67-3.66,5.34a45.5,45.5,0,0,0-2.49,4.47Zm83.22-21.6q-.66.96-1.71,2.46T180.3,40.1q-1.2,1.74-2.4,3.63t-2.19,3.69a31.567,31.567,0,0,0-1.62,3.36,7.317,7.317,0,0,0-.63,2.64q0,1.74,1.38,1.74a5.457,5.457,0,0,0,2.97-1.2,30.263,30.263,0,0,0,3.75-3.21,61.118,61.118,0,0,0,4.26-4.71q2.22-2.7,4.5-5.7l.36.24q-2.4,3.06-4.68,5.97a57.066,57.066,0,0,1-4.53,5.16,24.713,24.713,0,0,1-4.5,3.63,8.684,8.684,0,0,1-4.59,1.38,6.036,6.036,0,0,1-3.12-.66,4.181,4.181,0,0,1-1.59-1.65,5.474,5.474,0,0,1-.6-2.07q-.09-1.08-.09-1.92l-.18-.12q-.96,1.14-2.07,2.28a17.247,17.247,0,0,1-2.43,2.07,13.251,13.251,0,0,1-2.76,1.5,8.238,8.238,0,0,1-3.06.57,5.422,5.422,0,0,1-4.35-1.71q-1.47-1.71-1.47-5.49a12.654,12.654,0,0,1,1.32-5.43,17.139,17.139,0,0,1,3.75-5.1,20.358,20.358,0,0,1,5.79-3.81,17.9,17.9,0,0,1,7.38-1.5,4.986,4.986,0,0,1,3.57,1.17,5.432,5.432,0,0,1,1.59,2.91h.12l1.56-3.12ZM160.44,54.08a5.765,5.765,0,0,0,3.24-1.62,24.49,24.49,0,0,0,3.9-4.14,29.617,29.617,0,0,0,3.3-5.49,13.46,13.46,0,0,0,1.38-5.67,2.569,2.569,0,0,0-.81-2.07,2.747,2.747,0,0,0-1.83-.69,4.657,4.657,0,0,0-2.55.84,12.3,12.3,0,0,0-2.52,2.25,25.162,25.162,0,0,0-2.34,3.18,31.54,31.54,0,0,0-1.95,3.6,22.771,22.771,0,0,0-1.32,3.63,12.534,12.534,0,0,0-.48,3.18,5.442,5.442,0,0,0,.39,2.01A1.539,1.539,0,0,0,160.44,54.08Zm54.84-13.56a70.728,70.728,0,0,1-4.71,6.24,31.481,31.481,0,0,1-5.55,5.16,25.7,25.7,0,0,1-6.84,3.51,26.7,26.7,0,0,1-8.64,1.29,15.323,15.323,0,0,1-3.39-.36,7.857,7.857,0,0,1-2.73-1.14,5.616,5.616,0,0,1-1.8-2.01,6.069,6.069,0,0,1-.66-2.91,4.522,4.522,0,0,1,1.41-3.51,4.7,4.7,0,0,1,3.27-1.29,3.35,3.35,0,0,1,2.16.72,2.6,2.6,0,0,1,.9,2.16,2.449,2.449,0,0,1-.78,1.98,2.627,2.627,0,0,1-1.74.66,3.448,3.448,0,0,1-1.2-.18,2.107,2.107,0,0,0-.3,1.14,4.087,4.087,0,0,0,1.02,2.97,4,4,0,0,0,3,1.05,4.733,4.733,0,0,0,3.84-1.5,5.414,5.414,0,0,0,1.26-3.6,4.462,4.462,0,0,0-.78-2.46q-.78-1.2-1.71-2.43t-1.71-2.46a4.607,4.607,0,0,1-.78-2.49,6.1,6.1,0,0,1,.66-2.76,7.233,7.233,0,0,1,1.95-2.37,9.6,9.6,0,0,1,3.15-1.65,13.869,13.869,0,0,1,4.26-.6,12,12,0,0,1,5.67,1.17,3.677,3.677,0,0,1,2.19,3.39,3.54,3.54,0,0,1-1.14,2.73,3.852,3.852,0,0,1-2.7,1.05,4.928,4.928,0,0,1-2.58-.72,6.238,6.238,0,0,0,.66-1.38,5.107,5.107,0,0,0,.24-1.62,5.318,5.318,0,0,0-.69-2.7,2.4,2.4,0,0,0-2.25-1.2,2.63,2.63,0,0,0-2.16.96,3.872,3.872,0,0,0-.78,2.52,4.78,4.78,0,0,0,.9,2.79q.9,1.29,1.95,2.55a28.082,28.082,0,0,1,1.95,2.64,5.586,5.586,0,0,1,.9,3.12,6.129,6.129,0,0,1-.93,3.45,8.033,8.033,0,0,1-2.85,2.49l.12.12a19.889,19.889,0,0,0,5.07-2.25,33.292,33.292,0,0,0,4.77-3.57,40.073,40.073,0,0,0,4.23-4.41,45.364,45.364,0,0,0,3.45-4.77Zm16.8-18.24-15,22.38.12.12q1.26-1.62,2.76-3.54a31.158,31.158,0,0,1,3.3-3.6,19.727,19.727,0,0,1,3.84-2.82,8.724,8.724,0,0,1,4.32-1.14,5.291,5.291,0,0,1,2.4.54,5.966,5.966,0,0,1,1.86,1.44,6.927,6.927,0,0,1,1.23,2.07,6.712,6.712,0,0,1,.45,2.43,11.175,11.175,0,0,1-1.29,5.43,18.6,18.6,0,0,1-2.91,4.05v.12a23.612,23.612,0,0,0,7.65-3.69,31.288,31.288,0,0,0,6.15-6.03l.48.3a26.781,26.781,0,0,1-6.72,6.63,24.288,24.288,0,0,1-8.34,3.69A23.25,23.25,0,0,1,229.17,53a36.445,36.445,0,0,1-3.57,1.92,23.052,23.052,0,0,1-3.51,1.32,11.547,11.547,0,0,1-3.09.48q-.6,0-1.23-.06a3.732,3.732,0,0,1-1.17-.3,2.126,2.126,0,0,1-.87-.69,1.93,1.93,0,0,1-.33-1.17,2.266,2.266,0,0,1,1.11-1.95,9.338,9.338,0,0,1,2.7-1.2,21.905,21.905,0,0,1,3.3-.66q1.71-.21,2.91-.27.54-.84,1.23-1.98T228,45.95a17.583,17.583,0,0,0,1.11-2.94,11.95,11.95,0,0,0,.45-3.27,8.8,8.8,0,0,0-.06-.96,3.311,3.311,0,0,0-.3-1.05,2.082,2.082,0,0,0-.72-.84,2.183,2.183,0,0,0-1.26-.33,5.124,5.124,0,0,0-3.27,1.74,35.194,35.194,0,0,0-3.72,4.23q-1.89,2.49-3.63,5.19t-3.12,4.68q-3.78,5.52-7.02,11.28t-6.48,11.4l-8.58.36q8.22-13.02,16.11-26.1T223.5,22.88Zm-13.8,32.46a1.805,1.805,0,0,0,.21.87.9.9,0,0,0,.87.39,2.694,2.694,0,0,0,1.53-.51,8.336,8.336,0,0,0,1.44-1.26q.69-.75,1.35-1.59t1.26-1.5a12.756,12.756,0,0,0-2.52.36,11.036,11.036,0,0,0-2.13.75,4.458,4.458,0,0,0-1.47,1.08A2.112,2.112,0,0,0,218.28,54.74Zm54.9-14.16q-1.38,1.98-3.09,3.99t-3.87,4.11a36.082,36.082,0,0,1-8.04,6,18.482,18.482,0,0,1-8.7,2.04q-4.14,0-6.3-1.92a7.074,7.074,0,0,1-2.16-5.58,10.962,10.962,0,0,1,1.8-6,19.229,19.229,0,0,1,4.53-4.92,24.19,24.19,0,0,1,5.94-3.36,16.681,16.681,0,0,1,6.09-1.26,10.584,10.584,0,0,1,4.74.93,3.151,3.151,0,0,1,1.86,3.03,4.534,4.534,0,0,1-2.04,3.66,20.189,20.189,0,0,1-4.83,2.67,42.473,42.473,0,0,1-5.61,1.8q-2.82.69-4.44,1.05-.12.6-.18,1.2t-.06,1.2a9.529,9.529,0,0,0,.24,2.13,4.919,4.919,0,0,0,.81,1.83,4.216,4.216,0,0,0,1.5,1.26,5,5,0,0,0,2.31.48,11.4,11.4,0,0,0,6.06-2.07,44.411,44.411,0,0,0,6.54-5.19,50.24,50.24,0,0,0,3.69-3.96q1.59-1.92,2.67-3.48Zm-13.2-4.5a1.485,1.485,0,0,0-1.68-1.68,4.48,4.48,0,0,0-2.85,1.35,17.277,17.277,0,0,0-2.82,3.24,30.353,30.353,0,0,0-2.25,3.87,13.517,13.517,0,0,0-1.2,3.3,16.44,16.44,0,0,0,4.53-1.65,15.708,15.708,0,0,0,3.42-2.49,9.991,9.991,0,0,0,2.13-2.94A7.15,7.15,0,0,0,259.98,36.08ZM261.6,56l12.12-21.36,8.64-.24-9.18,13.56.12.12a58.256,58.256,0,0,1,6.15-7.62,16.73,16.73,0,0,1,5.01-3.78,15.769,15.769,0,0,1,1.5-1.62,4.839,4.839,0,0,1,1.71-.96,12.14,12.14,0,0,1,2.82-.51q1.77-.15,4.83-.27a19.639,19.639,0,0,0-1.44,1.62,16.285,16.285,0,0,0-1.32,1.92,12.531,12.531,0,0,0-.99,2.1,6.165,6.165,0,0,0-.39,2.1,4.564,4.564,0,0,0,.63,2.34,2.154,2.154,0,0,0,2.01,1.08,4.5,4.5,0,0,0,1.8-.39,8.6,8.6,0,0,0,1.74-1.02,13.154,13.154,0,0,0,1.59-1.41q.75-.78,1.35-1.5l.42.36q-.42.48-1.2,1.41a10.594,10.594,0,0,1-2.07,1.83,13.86,13.86,0,0,1-3.18,1.59,13.241,13.241,0,0,1-4.53.69,7.464,7.464,0,0,1-2.64-.45,6.338,6.338,0,0,1-2.01-1.17,5.158,5.158,0,0,1-1.26-1.68,4.747,4.747,0,0,1-.45-2.04,6.752,6.752,0,0,1,.48-2.82v-.12a16.475,16.475,0,0,0-3.93,3.18,53.709,53.709,0,0,0-4.14,4.89q-2.01,2.67-3.66,5.34a45.5,45.5,0,0,0-2.49,4.47Zm66-21.6q-.66.96-1.71,2.46t-2.25,3.24q-1.2,1.74-2.4,3.63t-2.19,3.69a31.568,31.568,0,0,0-1.62,3.36,7.317,7.317,0,0,0-.63,2.64q0,1.74,1.38,1.74a5.457,5.457,0,0,0,2.97-1.2,30.261,30.261,0,0,0,3.75-3.21,61.118,61.118,0,0,0,4.26-4.71q2.22-2.7,4.5-5.7l.36.24q-2.4,3.06-4.68,5.97a57.064,57.064,0,0,1-4.53,5.16,24.712,24.712,0,0,1-4.5,3.63,8.684,8.684,0,0,1-4.59,1.38,6.036,6.036,0,0,1-3.12-.66,4.181,4.181,0,0,1-1.59-1.65,5.474,5.474,0,0,1-.6-2.07q-.09-1.08-.09-1.92l-.18-.12q-.96,1.14-2.07,2.28a17.25,17.25,0,0,1-2.43,2.07,13.252,13.252,0,0,1-2.76,1.5,8.238,8.238,0,0,1-3.06.57,5.422,5.422,0,0,1-4.35-1.71Q294,53.3,294,49.52a12.654,12.654,0,0,1,1.32-5.43,17.14,17.14,0,0,1,3.75-5.1,20.358,20.358,0,0,1,5.79-3.81,17.9,17.9,0,0,1,7.38-1.5,4.986,4.986,0,0,1,3.57,1.17,5.432,5.432,0,0,1,1.59,2.91h.12l1.56-3.12ZM303.78,54.08a5.765,5.765,0,0,0,3.24-1.62,24.49,24.49,0,0,0,3.9-4.14,29.618,29.618,0,0,0,3.3-5.49,13.46,13.46,0,0,0,1.38-5.67,2.569,2.569,0,0,0-.81-2.07,2.747,2.747,0,0,0-1.83-.69,4.657,4.657,0,0,0-2.55.84,12.3,12.3,0,0,0-2.52,2.25,25.159,25.159,0,0,0-2.34,3.18,31.537,31.537,0,0,0-1.95,3.6,22.771,22.771,0,0,0-1.32,3.63,12.535,12.535,0,0,0-.48,3.18,5.443,5.443,0,0,0,.39,2.01A1.539,1.539,0,0,0,303.78,54.08Zm74.4-19.68q-.66.96-1.71,2.46t-2.25,3.24q-1.2,1.74-2.4,3.63t-2.19,3.69a31.568,31.568,0,0,0-1.62,3.36,7.317,7.317,0,0,0-.63,2.64q0,1.74,1.38,1.74a5.457,5.457,0,0,0,2.97-1.2,30.261,30.261,0,0,0,3.75-3.21,61.118,61.118,0,0,0,4.26-4.71q2.22-2.7,4.5-5.7l.36.24q-2.4,3.06-4.68,5.97a57.064,57.064,0,0,1-4.53,5.16,24.712,24.712,0,0,1-4.5,3.63,8.684,8.684,0,0,1-4.59,1.38,6.036,6.036,0,0,1-3.12-.66,4.181,4.181,0,0,1-1.59-1.65,5.474,5.474,0,0,1-.6-2.07q-.09-1.08-.09-1.92l-.18-.12q-.96,1.14-2.07,2.28a17.25,17.25,0,0,1-2.43,2.07,13.252,13.252,0,0,1-2.76,1.5,8.238,8.238,0,0,1-3.06.57,5.422,5.422,0,0,1-4.35-1.71q-1.47-1.71-1.47-5.49a12.654,12.654,0,0,1,1.32-5.43,17.14,17.14,0,0,1,3.75-5.1,20.358,20.358,0,0,1,5.79-3.81,17.9,17.9,0,0,1,7.38-1.5,4.986,4.986,0,0,1,3.57,1.17,5.432,5.432,0,0,1,1.59,2.91h.12l1.56-3.12ZM354.36,54.08a5.765,5.765,0,0,0,3.24-1.62,24.489,24.489,0,0,0,3.9-4.14,29.618,29.618,0,0,0,3.3-5.49,13.46,13.46,0,0,0,1.38-5.67,2.569,2.569,0,0,0-.81-2.07,2.747,2.747,0,0,0-1.83-.69,4.657,4.657,0,0,0-2.55.84,12.3,12.3,0,0,0-2.52,2.25,25.159,25.159,0,0,0-2.34,3.18,31.537,31.537,0,0,0-1.95,3.6,22.771,22.771,0,0,0-1.32,3.63,12.535,12.535,0,0,0-.48,3.18,5.443,5.443,0,0,0,.39,2.01A1.539,1.539,0,0,0,354.36,54.08Zm68.7-40.44q-5.04,8.4-8.67,14.43t-6.15,10.26q-2.52,4.23-4.02,6.9t-2.31,4.29a18.206,18.206,0,0,0-1.08,2.49,5.255,5.255,0,0,0-.27,1.53,1.722,1.722,0,0,0,.39,1.17,1.544,1.544,0,0,0,1.23.45,6.065,6.065,0,0,0,2.88-1.2,23.231,23.231,0,0,0,3.78-3.12,54.529,54.529,0,0,0,5.19-5.94q2.19-2.94,3.39-4.62l.54.3q-1.38,1.98-3.75,5.13a55.994,55.994,0,0,1-5.55,6.27,20.531,20.531,0,0,1-4.74,3.63,9.605,9.605,0,0,1-4.44,1.11,4.813,4.813,0,0,1-3.69-1.44,5.059,5.059,0,0,1-1.35-3.6,4.037,4.037,0,0,1,.3-1.44l-.12-.12a23.12,23.12,0,0,1-4.83,4.65,10.805,10.805,0,0,1-6.45,1.95,4.89,4.89,0,0,1-4.2-1.86,7.148,7.148,0,0,1-1.38-4.38,13.2,13.2,0,0,1,1.71-6.54,19.19,19.19,0,0,1,4.41-5.34,21.639,21.639,0,0,1,6.03-3.6,17.739,17.739,0,0,1,6.57-1.32,4.344,4.344,0,0,1,3.12,1.14,5.724,5.724,0,0,1,1.62,2.88l13.2-23.46ZM399.42,37.46a4.242,4.242,0,0,0-.51-2.22,2.028,2.028,0,0,0-1.89-.84,5.9,5.9,0,0,0-3.81,1.8,22.572,22.572,0,0,0-3.72,4.38,28.575,28.575,0,0,0-2.82,5.43,13.989,13.989,0,0,0-1.11,4.95,4.634,4.634,0,0,0,.48,2.25,1.7,1.7,0,0,0,1.62.87,5.25,5.25,0,0,0,2.85-.9,13.39,13.39,0,0,0,2.73-2.37,21.309,21.309,0,0,0,2.43-3.33,38.776,38.776,0,0,0,1.95-3.69,24.742,24.742,0,0,0,1.32-3.51A10.62,10.62,0,0,0,399.42,37.46Zm62.7-3.06q-.66.96-1.71,2.46t-2.25,3.24q-1.2,1.74-2.4,3.63t-2.19,3.69a31.568,31.568,0,0,0-1.62,3.36,7.317,7.317,0,0,0-.63,2.64q0,1.74,1.38,1.74a5.457,5.457,0,0,0,2.97-1.2,30.261,30.261,0,0,0,3.75-3.21,61.118,61.118,0,0,0,4.26-4.71q2.22-2.7,4.5-5.7l.36.24q-2.4,3.06-4.68,5.97a57.064,57.064,0,0,1-4.53,5.16,24.712,24.712,0,0,1-4.5,3.63,8.684,8.684,0,0,1-4.59,1.38,6.036,6.036,0,0,1-3.12-.66,4.181,4.181,0,0,1-1.59-1.65,5.474,5.474,0,0,1-.6-2.07q-.09-1.08-.09-1.92l-.18-.12q-.96,1.14-2.07,2.28a17.25,17.25,0,0,1-2.43,2.07,13.252,13.252,0,0,1-2.76,1.5,8.238,8.238,0,0,1-3.06.57,5.422,5.422,0,0,1-4.35-1.71q-1.47-1.71-1.47-5.49a12.654,12.654,0,0,1,1.32-5.43,17.14,17.14,0,0,1,3.75-5.1,20.358,20.358,0,0,1,5.79-3.81,17.9,17.9,0,0,1,7.38-1.5,4.986,4.986,0,0,1,3.57,1.17,5.432,5.432,0,0,1,1.59,2.91h.12l1.56-3.12ZM438.3,54.08a5.765,5.765,0,0,0,3.24-1.62,24.489,24.489,0,0,0,3.9-4.14,29.618,29.618,0,0,0,3.3-5.49,13.46,13.46,0,0,0,1.38-5.67,2.569,2.569,0,0,0-.81-2.07,2.747,2.747,0,0,0-1.83-.69,4.657,4.657,0,0,0-2.55.84,12.3,12.3,0,0,0-2.52,2.25,25.159,25.159,0,0,0-2.34,3.18,31.537,31.537,0,0,0-1.95,3.6,22.771,22.771,0,0,0-1.32,3.63,12.535,12.535,0,0,0-.48,3.18,5.443,5.443,0,0,0,.39,2.01A1.539,1.539,0,0,0,438.3,54.08Zm54.84-13.56a70.731,70.731,0,0,1-4.71,6.24,31.481,31.481,0,0,1-5.55,5.16,25.7,25.7,0,0,1-6.84,3.51,26.7,26.7,0,0,1-8.64,1.29,15.323,15.323,0,0,1-3.39-.36,7.858,7.858,0,0,1-2.73-1.14,5.616,5.616,0,0,1-1.8-2.01,6.069,6.069,0,0,1-.66-2.91,4.522,4.522,0,0,1,1.41-3.51,4.7,4.7,0,0,1,3.27-1.29,3.35,3.35,0,0,1,2.16.72,2.6,2.6,0,0,1,.9,2.16,2.449,2.449,0,0,1-.78,1.98,2.627,2.627,0,0,1-1.74.66,3.448,3.448,0,0,1-1.2-.18,2.107,2.107,0,0,0-.3,1.14,4.087,4.087,0,0,0,1.02,2.97,4,4,0,0,0,3,1.05,4.733,4.733,0,0,0,3.84-1.5,5.414,5.414,0,0,0,1.26-3.6,4.462,4.462,0,0,0-.78-2.46q-.78-1.2-1.71-2.43t-1.71-2.46a4.607,4.607,0,0,1-.78-2.49,6.1,6.1,0,0,1,.66-2.76,7.232,7.232,0,0,1,1.95-2.37,9.6,9.6,0,0,1,3.15-1.65,13.869,13.869,0,0,1,4.26-.6,12,12,0,0,1,5.67,1.17,3.677,3.677,0,0,1,2.19,3.39,3.54,3.54,0,0,1-1.14,2.73,3.852,3.852,0,0,1-2.7,1.05,4.928,4.928,0,0,1-2.58-.72,6.238,6.238,0,0,0,.66-1.38,5.107,5.107,0,0,0,.24-1.62,5.318,5.318,0,0,0-.69-2.7,2.4,2.4,0,0,0-2.25-1.2,2.63,2.63,0,0,0-2.16.96,3.872,3.872,0,0,0-.78,2.52,4.78,4.78,0,0,0,.9,2.79q.9,1.29,1.95,2.55a28.088,28.088,0,0,1,1.95,2.64,5.585,5.585,0,0,1,.9,3.12,6.129,6.129,0,0,1-.93,3.45,8.033,8.033,0,0,1-2.85,2.49l.12.12a19.89,19.89,0,0,0,5.07-2.25,33.291,33.291,0,0,0,4.77-3.57,40.076,40.076,0,0,0,4.23-4.41,45.366,45.366,0,0,0,3.45-4.77Zm-4.44-4.68.42-.96h4.98l5.1-8.7,8.34-.3-5.4,9h8.22l-.48.96H501.6q-.84,1.44-2.31,3.78t-2.91,4.86q-1.44,2.52-2.52,4.86a9.714,9.714,0,0,0-1.08,3.84,1.853,1.853,0,0,0,.57,1.5,2.4,2.4,0,0,0,1.59.48,7.4,7.4,0,0,0,3.3-.87,21.061,21.061,0,0,0,3.51-2.25,32.688,32.688,0,0,0,3.42-3.09q1.65-1.71,3.12-3.39t2.67-3.15q1.2-1.47,1.92-2.37l.48.24q-2.04,2.4-4.32,5.28a50.212,50.212,0,0,1-4.92,5.37,26.9,26.9,0,0,1-5.7,4.14,13.81,13.81,0,0,1-6.66,1.65,5.314,5.314,0,0,1-4.11-1.47,5.412,5.412,0,0,1-1.35-3.81,8.691,8.691,0,0,1,.33-2.37,17.757,17.757,0,0,1,1.17-2.88q.84-1.71,2.22-4.17t3.54-6.18ZM501.66,56l12.12-21.36,8.64-.24-9.18,13.56.12.12a58.261,58.261,0,0,1,6.15-7.62,16.73,16.73,0,0,1,5.01-3.78,15.769,15.769,0,0,1,1.5-1.62,4.839,4.839,0,0,1,1.71-.96,12.14,12.14,0,0,1,2.82-.51q1.77-.15,4.83-.27a19.65,19.65,0,0,0-1.44,1.62,16.292,16.292,0,0,0-1.32,1.92,12.534,12.534,0,0,0-.99,2.1,6.165,6.165,0,0,0-.39,2.1,4.564,4.564,0,0,0,.63,2.34,2.154,2.154,0,0,0,2.01,1.08,4.5,4.5,0,0,0,1.8-.39,8.594,8.594,0,0,0,1.74-1.02,13.154,13.154,0,0,0,1.59-1.41q.75-.78,1.35-1.5l.42.36q-.42.48-1.2,1.41a10.6,10.6,0,0,1-2.07,1.83,13.859,13.859,0,0,1-3.18,1.59,13.241,13.241,0,0,1-4.53.69,7.464,7.464,0,0,1-2.64-.45,6.338,6.338,0,0,1-2.01-1.17,5.158,5.158,0,0,1-1.26-1.68,4.748,4.748,0,0,1-.45-2.04,6.753,6.753,0,0,1,.48-2.82v-.12a16.474,16.474,0,0,0-3.93,3.18,53.714,53.714,0,0,0-4.14,4.89q-2.01,2.67-3.66,5.34a45.5,45.5,0,0,0-2.49,4.47Zm66-21.6q-.66.96-1.71,2.46T563.7,40.1q-1.2,1.74-2.4,3.63t-2.19,3.69a31.567,31.567,0,0,0-1.62,3.36,7.317,7.317,0,0,0-.63,2.64q0,1.74,1.38,1.74a5.457,5.457,0,0,0,2.97-1.2,30.27,30.27,0,0,0,3.75-3.21,61.118,61.118,0,0,0,4.26-4.71q2.22-2.7,4.5-5.7l.36.24q-2.4,3.06-4.68,5.97a57.069,57.069,0,0,1-4.53,5.16,24.712,24.712,0,0,1-4.5,3.63,8.684,8.684,0,0,1-4.59,1.38,6.035,6.035,0,0,1-3.12-.66,4.181,4.181,0,0,1-1.59-1.65,5.473,5.473,0,0,1-.6-2.07q-.09-1.08-.09-1.92l-.18-.12q-.96,1.14-2.07,2.28a17.246,17.246,0,0,1-2.43,2.07,13.251,13.251,0,0,1-2.76,1.5,8.238,8.238,0,0,1-3.06.57,5.422,5.422,0,0,1-4.35-1.71q-1.47-1.71-1.47-5.49a12.654,12.654,0,0,1,1.32-5.43,17.14,17.14,0,0,1,3.75-5.1,20.358,20.358,0,0,1,5.79-3.81,17.9,17.9,0,0,1,7.38-1.5,4.986,4.986,0,0,1,3.57,1.17,5.432,5.432,0,0,1,1.59,2.91h.12l1.56-3.12ZM543.84,54.08a5.765,5.765,0,0,0,3.24-1.62,24.488,24.488,0,0,0,3.9-4.14,29.615,29.615,0,0,0,3.3-5.49,13.46,13.46,0,0,0,1.38-5.67,2.569,2.569,0,0,0-.81-2.07,2.747,2.747,0,0,0-1.83-.69,4.657,4.657,0,0,0-2.55.84,12.3,12.3,0,0,0-2.52,2.25,25.165,25.165,0,0,0-2.34,3.18,31.542,31.542,0,0,0-1.95,3.6,22.771,22.771,0,0,0-1.32,3.63,12.534,12.534,0,0,0-.48,3.18,5.442,5.442,0,0,0,.39,2.01A1.539,1.539,0,0,0,543.84,54.08ZM569.22,32.6a22.772,22.772,0,0,0,4.41-.66,13.22,13.22,0,0,0,3.84-1.62,10.327,10.327,0,0,0,2.91-2.76,9.4,9.4,0,0,0,1.56-4.2q-.48.18-1.02.39a3.465,3.465,0,0,1-1.26.21,2.69,2.69,0,0,1-1.92-.81,3.06,3.06,0,0,1-.84-2.31,4.154,4.154,0,0,1,1.17-2.97,4.3,4.3,0,0,1,3.27-1.23,4.212,4.212,0,0,1,3.45,1.5,5.326,5.326,0,0,1,1.23,3.48,9.011,9.011,0,0,1-1.47,4.86,11.6,11.6,0,0,1-4.23,3.9,18.913,18.913,0,0,1-5.76,2.07,34.669,34.669,0,0,1-5.34.63Zm14.4,0a22.773,22.773,0,0,0,4.41-.66,13.221,13.221,0,0,0,3.84-1.62,10.327,10.327,0,0,0,2.91-2.76,9.4,9.4,0,0,0,1.56-4.2q-.48.18-1.02.39a3.466,3.466,0,0,1-1.26.21,2.69,2.69,0,0,1-1.92-.81,3.06,3.06,0,0,1-.84-2.31,4.154,4.154,0,0,1,1.17-2.97,4.3,4.3,0,0,1,3.27-1.23,4.212,4.212,0,0,1,3.45,1.5,5.326,5.326,0,0,1,1.23,3.48,9.011,9.011,0,0,1-1.47,4.86,11.6,11.6,0,0,1-4.23,3.9,18.913,18.913,0,0,1-5.76,2.07,34.669,34.669,0,0,1-5.34.63Z" transform="translate(-5.64 -11.24)" fill="#fff"/></svg>