<svg xmlns="http://www.w3.org/2000/svg" xmlns:xlink="http://www.w3.org/1999/xlink" width="650" height="168" viewBox="0 0 650 168"><defs><clipPath id="b"><rect width="650" height="168"/></clipPath></defs><g id="a" clip-path="url(#b)"><rect width="650" height="168" fill="rgba(0,0,0,0)"/><path d="M22.44,17.12a23.176,23.176,0,0,0-4.38.66,13.175,13.175,0,0,0-3.87,1.62,10.327,10.327,0,0,0-2.91,2.76,9.4,9.4,0,0,0-1.56,4.2q.48-.18,1.02-.39A3.465,3.465,0,0,1,12,25.76a2.69,2.69,0,0,1,1.92.81,3.06,3.06,0,0,1,.84,2.31,4.154,4.154,0,0,1-1.17,2.97,4.3,4.3,0,0,1-3.27,1.23,4.212,4.212,0,0,1-3.45-1.5A5.326,5.326,0,0,1,5.64,28.1a9.011,9.011,0,0,1,1.47-4.86,11.6,11.6,0,0,1,4.23-3.9,18.913,18.913,0,0,1,5.76-2.07,34.669,34.669,0,0,1,5.34-.63Zm14.4,0a23.176,23.176,0,0,0-4.38.66,13.175,13.175,0,0,0-3.87,1.62,10.327,10.327,0,0,0-2.91,2.76,9.4,9.4,0,0,0-1.56,4.2q.48-.18,1.02-.39a3.465,3.465,0,0,1,1.26-.21,2.69,2.69,0,0,1,1.92.81,3.06,3.06,0,0,1,.84,2.31,4.154,4.154,0,0,1-1.17,2.97,4.3,4.3,0,0,1-3.27,1.23,4.212,4.212,0,0,1-3.45-1.5,5.326,5.326,0,0,1-1.23-3.48,9.011,9.011,0,0,1,1.47-4.86,11.6,11.6,0,0,1,4.23-3.9,18.913,18.913,0,0,1,5.76-2.07,34.669,34.669,0,0,1,5.34-.63ZM88.08,11.6q-1.56.36-3.03.78a11.6,11.6,0,0,0-2.85,1.26,15.353,15.353,0,0,1,3.15,1.68,12.414,12.414,0,0,1,2.55,2.34,10.782,10.782,0,0,1,1.71,2.94,9.685,9.685,0,0,1,.63,3.54,10.905,10.905,0,0,1-1.23,5.31,11.5,11.5,0,0,1-3.24,3.75,14.4,14.4,0,0,1-4.5,2.25,17.288,17.288,0,0,1-5.01.75,9.863,9.863,0,0,1-2.28-.27,7.57,7.57,0,0,1-2.07-.81,5,5,0,0,1-1.53-1.35,3.089,3.089,0,0,1-.6-1.89,2.622,2.622,0,0,1,.93-2.07A3.392,3.392,0,0,1,73.02,29a3.331,3.331,0,0,1,2.46.96,4.045,4.045,0,0,0-1.29,1.5,4.235,4.235,0,0,0-.45,1.92,1.966,1.966,0,0,0,.45,1.35,1.629,1.629,0,0,0,1.29.51,4.19,4.19,0,0,0,3.09-1.5,15.015,15.015,0,0,0,2.46-3.6,22.257,22.257,0,0,0,1.65-4.44,16.421,16.421,0,0,0,.6-3.96,8.182,8.182,0,0,0-.9-3.87,7.628,7.628,0,0,0-2.34-2.73,33.677,33.677,0,0,0-6.33,6.81q-2.55,3.69-4.68,7.53T64.86,37.1A42.441,42.441,0,0,1,60,44.24a34.632,34.632,0,0,1-6.72,6.09A33.623,33.623,0,0,1,43.5,54.8v.12q1.26.18,2.82.33t3.18.27q1.62.12,3.12.18t2.58.06a51.221,51.221,0,0,0,8.61-.72A33.961,33.961,0,0,0,72,52.55a32.69,32.69,0,0,0,7.62-4.83,37.352,37.352,0,0,0,6.84-7.74l.54.3a63.171,63.171,0,0,1-5.94,7.35,32.374,32.374,0,0,1-6.33,5.22,26.133,26.133,0,0,1-7.23,3.09,34.132,34.132,0,0,1-8.64,1.02q-2.76,0-5.46-.21t-4.98-.48q-2.28-.27-3.93-.51t-2.31-.36q-2.28.48-4.65.78a42.024,42.024,0,0,1-5.25.3,14.279,14.279,0,0,1-5.07-.72q-1.83-.72-1.83-1.74,0-1.5,2.1-1.5a27.526,27.526,0,0,1,3.36.24q1.92.24,3.9.57t3.81.69q1.83.36,3.15.54a14.225,14.225,0,0,0,4.29-2.37,22.281,22.281,0,0,0,3.6-3.75,53.028,53.028,0,0,0,3.42-5.07q1.71-2.85,3.69-6.33t4.23-6.99a70.784,70.784,0,0,1,4.83-6.66,40.427,40.427,0,0,1,5.61-5.64A25.026,25.026,0,0,1,78,13.82a14.069,14.069,0,0,0-3.93-1.14,28.668,28.668,0,0,0-4.41-.36,34.358,34.358,0,0,0-19.62,6.36,25.15,25.15,0,0,0-6.72,7.17,17.161,17.161,0,0,0-2.58,9.21,10.9,10.9,0,0,0,.27,2.4,6.173,6.173,0,0,0,.9,2.13,5.157,5.157,0,0,0,1.62,1.53,4.487,4.487,0,0,0,2.37.6,6.509,6.509,0,0,0,4.02-1.26,10.349,10.349,0,0,0,2.76-3.12,14.877,14.877,0,0,0,1.59-3.93,15.622,15.622,0,0,0,.51-3.69,17.3,17.3,0,0,0-.21-2.97,20.776,20.776,0,0,0-.51-2.19l.66-.06q.24.96.51,2.13a14.239,14.239,0,0,1,.27,3.09,17.6,17.6,0,0,1-.78,4.98,16.549,16.549,0,0,1-2.34,4.86,13.08,13.08,0,0,1-3.99,3.69,10.857,10.857,0,0,1-5.73,1.47,8.866,8.866,0,0,1-6.42-2.37,8.383,8.383,0,0,1-2.46-6.33,15.085,15.085,0,0,1,1.8-7.29,23.5,23.5,0,0,1,4.74-6.06,33.035,33.035,0,0,1,6.75-4.8,51.206,51.206,0,0,1,7.83-3.45,55.021,55.021,0,0,1,7.95-2.1,39.8,39.8,0,0,1,7.11-.72,35.262,35.262,0,0,1,5.94.42,31.836,31.836,0,0,1,4.26,1.02q.3-.12,1.08-.42t1.86-.6q1.08-.3,2.34-.54a13.133,13.133,0,0,1,2.46-.24Zm24.54,28.98q-1.38,1.98-3.09,3.99t-3.87,4.11a36.082,36.082,0,0,1-8.04,6,18.482,18.482,0,0,1-8.7,2.04q-4.14,0-6.3-1.92a7.074,7.074,0,0,1-2.16-5.58,10.962,10.962,0,0,1,1.8-6,19.229,19.229,0,0,1,4.53-4.92,24.191,24.191,0,0,1,5.94-3.36,16.681,16.681,0,0,1,6.09-1.26,10.584,10.584,0,0,1,4.74.93,3.151,3.151,0,0,1,1.86,3.03,4.534,4.534,0,0,1-2.04,3.66,20.189,20.189,0,0,1-4.83,2.67,42.474,42.474,0,0,1-5.61,1.8q-2.82.69-4.44,1.05-.12.6-.18,1.2t-.06,1.2a9.529,9.529,0,0,0,.24,2.13,4.919,4.919,0,0,0,.81,1.83,4.216,4.216,0,0,0,1.5,1.26,5,5,0,0,0,2.31.48,11.4,11.4,0,0,0,6.06-2.07,44.41,44.41,0,0,0,6.54-5.19,50.239,50.239,0,0,0,3.69-3.96q1.59-1.92,2.67-3.48Zm-13.2-4.5a1.485,1.485,0,0,0-1.68-1.68,4.48,4.48,0,0,0-2.85,1.35,17.277,17.277,0,0,0-2.82,3.24,30.353,30.353,0,0,0-2.25,3.87,13.516,13.516,0,0,0-1.2,3.3,16.44,16.44,0,0,0,4.53-1.65,15.708,15.708,0,0,0,3.42-2.49,9.99,9.99,0,0,0,2.13-2.94A7.15,7.15,0,0,0,99.42,36.08ZM101.04,56l12.12-21.36,8.64-.24-9.18,13.56.12.12a58.258,58.258,0,0,1,6.15-7.62,16.73,16.73,0,0,1,5.01-3.78,15.769,15.769,0,0,1,1.5-1.62,4.84,4.84,0,0,1,1.71-.96,12.14,12.14,0,0,1,2.82-.51q1.77-.15,4.83-.27a19.639,19.639,0,0,0-1.44,1.62A16.289,16.289,0,0,0,132,36.86a12.529,12.529,0,0,0-.99,2.1,6.165,6.165,0,0,0-.39,2.1,4.564,4.564,0,0,0,.63,2.34,2.154,2.154,0,0,0,2.01,1.08,4.5,4.5,0,0,0,1.8-.39,8.6,8.6,0,0,0,1.74-1.02,13.154,13.154,0,0,0,1.59-1.41q.75-.78,1.35-1.5l.42.36q-.42.48-1.2,1.41a10.594,10.594,0,0,1-2.07,1.83,13.859,13.859,0,0,1-3.18,1.59,13.241,13.241,0,0,1-4.53.69,7.464,7.464,0,0,1-2.64-.45,6.338,6.338,0,0,1-2.01-1.17,5.158,5.158,0,0,1-1.26-1.68,4.748,4.748,0,0,1-.45-2.04,6.753,6.753,0,0,1,.48-2.82v-.12a16.475,16.475,0,0,0-3.93,3.18,53.706,53.706,0,0,0-4.14,4.89q-2.01,2.67-3.66,5.34a45.5,45.5,0,0,0-2.49,4.47Zm83.22-21.6q-.66.96-1.71,2.46T180.3,40.1q-1.2,1.74-2.4,3.63t-2.19,3.69a31.567,31.567,0,0,0-1.62,3.36,7.317,7.317,0,0,0-.63,2.64q0,1.74,1.38,1.74a5.457,5.457,0,0,0,2.97-1.2,30.263,30.263,0,0,0,3.75-3.21,61.118,61.118,0,0,0,4.26-4.71q2.22-2.7,4.5-5.7l.36.24q-2.4,3.06-4.68,5.97a57.066,57.066,0,0,1-4.53,5.16,24.713,24.713,0,0,1-4.5,3.63,8.684,8.684,0,0,1-4.59,1.38,6.036,6.036,0,0,1-3.12-.66,4.181,4.181,0,0,1-1.59-1.65,5.474,5.474,0,0,1-.6-2.07q-.09-1.08-.09-1.92l-.18-.12q-.96,1.14-2.07,2.28a17.247,17.247,0,0,1-2.43,2.07,13.251,13.251,0,0,1-2.76,1.5,8.238,8.238,0,0,1-3.06.57,5.422,5.422,0,0,1-4.35-1.71q-1.47-1.71-1.47-5.49a12.654,12.654,0,0,1,1.32-5.43,17.139,17.139,0,0,1,3.75-5.1,20.358,20.358,0,0,1,5.79-3.81,17.9,17.9,0,0,1,7.38-1.5,4.986,4.986,0,0,1,3.57,1.17,5.432,5.432,0,0,1,1.59,2.91h.12l1.56-3.12ZM160.44,54.08a5.765,5.765,0,0,0,3.24-1.62,24.49,24.49,0,0,0,3.9-4.14,29.617,29.617,0,0,0,3.3-5.49,13.46,13.46,0,0,0,1.38-5.67,2.569,2.569,0,0,0-.81-2.07,2.747,2.747,0,0,0-1.83-.69,4.657,4.657,0,0,0-2.55.84,12.3,12.3,0,0,0-2.52,2.25,25.162,25.162,0,0,0-2.34,3.18,31.54,31.54,0,0,0-1.95,3.6,22.771,22.771,0,0,0-1.32,3.63,12.534,12.534,0,0,0-.48,3.18,5.442,5.442,0,0,0,.39,2.01A1.539,1.539,0,0,0,160.44,54.08Zm54.84-13.56a70.728,70.728,0,0,1-4.71,6.24,31.481,31.481,0,0,1-5.55,5.16,25.7,25.7,0,0,1-6.84,3.51,26.7,26.7,0,0,1-8.64,1.29,15.323,15.323,0,0,1-3.39-.36,7.857,7.857,0,0,1-2.73-1.14,5.616,5.616,0,0,1-1.8-2.01,6.069,6.069,0,0,1-.66-2.91,4.522,4.522,0,0,1,1.41-3.51,4.7,4.7,0,0,1,3.27-1.29,3.35,3.35,0,0,1,2.16.72,2.6,2.6,0,0,1,.9,2.16,2.449,2.449,0,0,1-.78,1.98,2.627,2.627,0,0,1-1.74.66,3.448,3.448,0,0,1-1.2-.18,2.107,2.107,0,0,0-.3,1.14,4.087,4.087,0,0,0,1.02,2.97,4,4,0,0,0,3,1.05,4.733,4.733,0,0,0,3.84-1.5,5.414,5.414,0,0,0,1.26-3.6,4.462,4.462,0,0,0-.78-2.46q-.78-1.2-1.71-2.43t-1.71-2.46a4.607,4.607,0,0,1-.78-2.49,6.1,6.1,0,0,1,.66-2.76,7.233,7.233,0,0,1,1.95-2.37,9.6,9.6,0,0,1,3.15-1.65,13.869,13.869,0,0,1,4.26-.6,12,12,0,0,1,5.67,1.17,3.677,3.677,0,0,1,2.19,3.39,3.54,3.54,0,0,1-1.14,2.73,3.852,3.852,0,0,1-2.7,1.05,4.928,4.928,0,0,1-2.58-.72,6.238,6.238,0,0,0,.66-1.38,5.107,5.107,0,0,0,.24-1.62,5.318,5.318,0,0,0-.69-2.7,2.4,2.4,0,0,0-2.25-1.2,2.63,2.63,0,0,0-2.16.96,3.872,3.872,0,0,0-.78,2.52,4.78,4.78,0,0,0,.9,2.79q.9,1.29,1.95,2.55a28.082,28.082,0,0,1,1.95,2.64,5.586,5.586,0,0,1,.9,3.12,6.129,6.129,0,0,1-.93,3.45,8.033,8.033,0,0,1-2.85,2.49l.12.12a19.889,19.889,0,0,0,5.07-2.25,33.292,33.292,0,0,0,4.77-3.57,40.073,40.073,0,0,0,4.23-4.41,45.364,45.364,0,0,0,3.45-4.77Zm16.8-18.24-15,22.38.12.12q1.26-1.62,2.76-3.54a31.158,31.158,0,0,1,3.3-3.6,19.727,19.727,0,0,1,3.84-2.82,8.724,8.724,0,0,1,4.32-1.14,5.291,5.291,0,0,1,2.4.54,5.966,5.966,0,0,1,1.86,1.44,6.927,6.927,0,0,1,1.23,2.07,6.712,6.712,0,0,1,.45,2.43,11.175,11.175,0,0,1-1.29,5.43,18.6,18.6,0,0,1-2.91,4.05v.12a23.612,23.612,0,0,0,7.65-3.69,31.288,31.288,0,0,0,6.15-6.03l.48.3a26.781,26.781,0,0,1-6.72,6.63,24.288,24.288,0,0,1-8.34,3.69A23.25,23.25,0,0,1,229.17,53a36.445,36.445,0,0,1-3.57,1.92,23.052,23.052,0,0,1-3.51,1.32,11.547,11.547,0,0,1-3.09.48q-.6,0-1.23-.06a3.732,3.732,0,0,1-1.17-.3,2.126,2.126,0,0,1-.87-.69,1.93,1.93,0,0,1-.33-1.17,2.266,2.266,0,0,1,1.11-1.95,9.338,9.338,0,0,1,2.7-1.2,21.905,21.905,0,0,1,3.3-.66q1.71-.21,2.91-.27.54-.84,1.23-1.98T228,45.95a17.583,17.583,0,0,0,1.11-2.94,11.95,11.95,0,0,0,.45-3.27,8.8,8.8,0,0,0-.06-.96,3.311,3.311,0,0,0-.3-1.05,2.082,2.082,0,0,0-.72-.84,2.183,2.183,0,0,0-1.26-.33,5.124,5.124,0,0,0-3.27,1.74,35.194,35.194,0,0,0-3.72,4.23q-1.89,2.49-3.63,5.19t-3.12,4.68q-3.78,5.52-7.02,11.28t-6.48,11.4l-8.58.36q8.22-13.02,16.11-26.1T223.5,22.88Zm-13.8,32.46a1.805,1.805,0,0,0,.21.87.9.9,0,0,0,.87.39,2.694,2.694,0,0,0,1.53-.51,8.336,8.336,0,0,0,1.44-1.26q.69-.75,1.35-1.59t1.26-1.5a12.756,12.756,0,0,0-2.52.36,11.036,11.036,0,0,0-2.13.75,4.458,4.458,0,0,0-1.47,1.08A2.112,2.112,0,0,0,218.28,54.74Zm54.9-14.16q-1.38,1.98-3.09,3.99t-3.87,4.11a36.082,36.082,0,0,1-8.04,6,18.482,18.482,0,0,1-8.7,2.04q-4.14,0-6.3-1.92a7.074,7.074,0,0,1-2.16-5.58,10.962,10.962,0,0,1,1.8-6,19.229,19.229,0,0,1,4.53-4.92,24.19,24.19,0,0,1,5.94-3.36,16.681,16.681,0,0,1,6.09-1.26,10.584,10.584,0,0,1,4.74.93,3.151,3.151,0,0,1,1.86,3.03,4.534,4.534,0,0,1-2.04,3.66,20.189,20.189,0,0,1-4.83,2.67,42.473,42.473,0,0,1-5.61,1.8q-2.82.69-4.44,1.05-.12.6-.18,1.2t-.06,1.2a9.529,9.529,0,0,0,.24,2.13,4.919,4.919,0,0,0,.81,1.83,4.216,4.216,0,0,0,1.5,1.26,5,5,0,0,0,2.31.48,11.4,11.4,0,0,0,6.06-2.07,44.411,44.411,0,0,0,6.54-5.19,50.24,50.24,0,0,0,3.69-3.96q1.59-1.92,2.67-3.48Zm-13.2-4.5a1.485,1.485,0,0,0-1.68-1.68,4.48,4.48,0,0,0-2.85,1.35,17.277,17.277,0,0,0-2.82,3.24,30.353,30.353,0,0,0-2.25,3.87,13.517,13.517,0,0,0-1.2,3.3,16.44,16.44,0,0,0,4.53-1.65,15.708,15.708,0,0,0,3.42-2.49,9.991,9.991,0,0,0,2.13-2.94A7.15,7.15,0,0,0,259.98,36.08ZM261.6,56l12.12-21.36,8.64-.24-9.18,13.56.12.12a58.256,58.256,0,0,1,6.15-7.62,16.73,16.73,0,0,1,5.01-3.78,15.769,15.769,0,0,1,1.5-1.62,4.839,4.839,0,0,1,1.71-.96,12.14,12.14,0,0,1,2.82-.51q1.77-.15,4.83-.27a19.639,19.639,0,0,0-1.44,1.62,16.285,16.285,0,0,0-1.32,1.92,12.531,12.531,0,0,0-.99,2.1,6.165,6.165,0,0,0-.39,2.1,4.564,4.564,0,0,0,.63,2.34,2.154,2.154,0,0,0,2.01,1.08,4.5,4.5,0,0,0,1.8-.39,8.6,8.6,0,0,0,1.74-1.02,13.154,13.154,0,0,0,1.59-1.41q.75-.78,1.35-1.5l.42.36q-.42.48-1.2,1.41a10.594,10.594,0,0,1-2.07,1.83,13.86,13.86,0,0,1-3.18,1.59,13.241,13.241,0,0,1-4.53.69,7.464,7.464,0,0,1-2.64-.45,6.338,6.338,0,0,1-2.01-1.17,5.158,5.158,0,0,1-1.26-1.68,4.747,4.747,0,0,1-.45-2.04,6.752,6.752,0,0,1,.48-2.82v-.12a16.475,16.475,0,0,0-3.93,3.18,53.709,53.709,0,0,0-4.14,4.89q-2.01,2.67-3.66,5.34a45.5,45.5,0,0,0-2.49,4.47Zm66-21.6q-.66.96-1.71,2.46t-2.25,3.24q-1.2,1.74-2.4,3.63t-2.19,3.69a31.568,31.568,0,0,0-1.62,3.36,7.317,7.317,0,0,0-.63,2.64q0,1.74,1.38,1.74a5.457,5.457,0,0,0,2.97-1.2,30.261,30.261,0,0,0,3.75-3.21,61.118,61.118,0,0,0,4.26-4.71q2.22-2.7,4.5-5.7l.36.24q-2.4,3.06-4.68,5.97a57.064,57.064,0,0,1-4.53,5.16,24.712,24.712,0,0,1-4.5,3.63,8.684,8.684,0,0,1-4.59,1.38,6.036,6.036,0,0,1-3.12-.66,4.181,4.181,0,0,1-1.59-1.65,5.474,5.474,0,0,1-.6-2.07q-.09-1.08-.09-1.92l-.18-.12q-.96,1.14-2.07,2.28a17.25,17.25,0,0,1-2.43,2.07,13.252,13.252,0,0,1-2.76,1.5,8.238,8.238,0,0,1-3.06.57,5.422,5.422,0,0,1-4.35-1.71Q294,53.3,294,49.52a12.654,12.654,0,0,1,1.32-5.43,17.14,17.14,0,0,1,3.75-5.1,20.358,20.358,0,0,1,5.79-3.81,17.9,17.9,0,0,1,7.38-1.5,4.986,4.986,0,0,1,3.57,1.17,5.432,5.432,0,0,1,1.59,2.91h.12l1.56-3.12ZM303.78,54.08a5.765,5.765,0,0,0,3.24-1.62,24.49,24.49,0,0,0,3.9-4.14,29.618,29.618,0,0,0,3.3-5.49,13.46,13.46,0,0,0,1.38-5.67,2.569,2.569,0,0,0-.81-2.07,2.747,2.747,0,0,0-1.83-.69,4.657,4.657,0,0,0-2.55.84,12.3,12.3,0,0,0-2.52,2.25,25.159,25.159,0,0,0-2.34,3.18,31.537,31.537,0,0,0-1.95,3.6,22.771,22.771,0,0,0-1.32,3.63,12.535,12.535,0,0,0-.48,3.18,5.443,5.443,0,0,0,.39,2.01A1.539,1.539,0,0,0,303.78,54.08Zm74.4-19.68q-.66.96-1.71,2.46t-2.25,3.24q-1.2,1.74-2.4,3.63t-2.19,3.69a31.568,31.568,0,0,0-1.62,3.36,7.317,7.317,0,0,0-.63,2.64q0,1.74,1.38,1.74a5.457,5.457,0,0,0,2.97-1.2,30.261,30.261,0,0,0,3.75-3.21,61.118,61.118,0,0,0,4.26-4.71q2.22-2.7,4.5-5.7l.36.24q-2.4,3.06-4.68,5.97a57.064,57.064,0,0,1-4.53,5.16,24.712,24.712,0,0,1-4.5,3.63,8.684,8.684,0,0,1-4.59,1.38,6.036,6.036,0,0,1-3.12-.66,4.181,4.181,0,0,1-1.59-1.65,5.474,5.474,0,0,1-.6-2.07q-.09-1.08-.09-1.92l-.18-.12q-.96,1.14-2.07,2.28a17.25,17.25,0,0,1-2.43,2.07,13.252,13.252,0,0,1-2.76,1.5,8.238,8.238,0,0,1-3.06.57,5.422,5.422,0,0,1-4.35-1.71q-1.47-1.71-1.47-5.49a12.654,12.654,0,0,1,1.32-5.43,17.14,17.14,0,0,1,3.75-5.1,20.358,20.358,0,0,1,5.79-3.81,17.9,17.9,0,0,1,7.38-1.5,4.986,4.986,0,0,1,3.57,1.17,5.432,5.432,0,0,1,1.59,2.91h.12l1.56-3.12ZM354.36,54.08a5.765,5.765,0,0,0,3.24-1.62,24.489,24.489,0,0,0,3.9-4.14,29.618,29.618,0,0,0,3.3-5.49,13.46,13.46,0,0,0,1.38-5.67,2.569,2.569,0,0,0-.81-2.07,2.747,2.747,0,0,0-1.83-.69,4.657,4.657,0,0,0-2.55.84,12.3,12.3,0,0,0-2.52,2.25,25.159,25.159,0,0,0-2.34,3.18,31.537,31.537,0,0,0-1.95,3.6,22.771,22.771,0,0,0-1.32,3.63,12.535,12.535,0,0,0-.48,3.18,5.443,5.443,0,0,0,.39,2.01A1.539,1.539,0,0,0,354.36,54.08Zm68.7-40.44q-5.04,8.4-8.67,14.43t-6.15,10.26q-2.52,4.23-4.02,6.9t-2.31,4.29a18.206,18.206,0,0,0-1.08,2.49,5.255,5.255,0,0,0-.27,1.53,1.722,1.722,0,0,0,.39,1.17,1.544,1.544,0,0,0,1.23.45,6.065,6.065,0,0,0,2.88-1.2,23.231,23.231,0,0,0,3.78-3.12,54.529,54.529,0,0,0,5.19-5.94q2.19-2.94,3.39-4.62l.54.3q-1.38,1.98-3.75,5.13a55.994,55.994,0,0,1-5.55,6.27,20.531,20.531,0,0,1-4.74,3.63,9.605,9.605,0,0,1-4.44,1.11,4.813,4.813,0,0,1-3.69-1.44,5.059,5.059,0,0,1-1.35-3.6,4.037,4.037,0,0,1,.3-1.44l-.12-.12a23.12,23.12,0,0,1-4.83,4.65,10.805,10.805,0,0,1-6.45,1.95,4.89,4.89,0,0,1-4.2-1.86,7.148,7.148,0,0,1-1.38-4.38,13.2,13.2,0,0,1,1.71-6.54,19.19,19.19,0,0,1,4.41-5.34,21.639,21.639,0,0,1,6.03-3.6,17.739,17.739,0,0,1,6.57-1.32,4.344,4.344,0,0,1,3.12,1.14,5.724,5.724,0,0,1,1.62,2.88l13.2-23.46ZM399.42,37.46a4.242,4.242,0,0,0-.51-2.22,2.028,2.028,0,0,0-1.89-.84,5.9,5.9,0,0,0-3.81,1.8,22.572,22.572,0,0,0-3.72,4.38,28.575,28.575,0,0,0-2.82,5.43,13.989,13.989,0,0,0-1.11,4.95,4.634,4.634,0,0,0,.48,2.25,1.7,1.7,0,0,0,1.62.87,5.25,5.25,0,0,0,2.85-.9,13.39,13.39,0,0,0,2.73-2.37,21.309,21.309,0,0,0,2.43-3.33,38.776,38.776,0,0,0,1.95-3.69,24.742,24.742,0,0,0,1.32-3.51A10.62,10.62,0,0,0,399.42,37.46Zm62.7-3.06q-.66.96-1.71,2.46t-2.25,3.24q-1.2,1.74-2.4,3.63t-2.19,3.69a31.568,31.568,0,0,0-1.62,3.36,7.317,7.317,0,0,0-.63,2.64q0,1.74,1.38,1.74a5.457,5.457,0,0,0,2.97-1.2,30.261,30.261,0,0,0,3.75-3.21,61.118,61.118,0,0,0,4.26-4.71q2.22-2.7,4.5-5.7l.36.24q-2.4,3.06-4.68,5.97a57.064,57.064,0,0,1-4.53,5.16,24.712,24.712,0,0,1-4.5,3.63,8.684,8.684,0,0,1-4.59,1.38,6.036,6.036,0,0,1-3.12-.66,4.181,4.181,0,0,1-1.59-1.65,5.474,5.474,0,0,1-.6-2.07q-.09-1.08-.09-1.92l-.18-.12q-.96,1.14-2.07,2.28a17.25,17.25,0,0,1-2.43,2.07,13.252,13.252,0,0,1-2.76,1.5,8.238,8.238,0,0,1-3.06.57,5.422,5.422,0,0,1-4.35-1.71q-1.47-1.71-1.47-5.49a12.654,12.654,0,0,1,1.32-5.43,17.14,17.14,0,0,1,3.75-5.1,20.358,20.358,0,0,1,5.79-3.81,17.9,17.9,0,0,1,7.38-1.5,4.986,4.986,0,0,1,3.57,1.17,5.432,5.432,0,0,1,1.59,2.91h.12l1.56-3.12ZM438.3,54.08a5.765,5.765,0,0,0,3.24-1.62,24.489,24.489,0,0,0,3.9-4.14,29.618,29.618,0,0,0,3.3-5.49,13.46,13.46,0,0,0,1.38-5.67,2.569,2.569,0,0,0-.81-2.07,2.747,2.747,0,0,0-1.83-.69,4.657,4.657,0,0,0-2.55.84,12.3,12.3,0,0,0-2.52,2.25,25.159,25.159,0,0,0-2.34,3.18,31.537,31.537,0,0,0-1.95,3.6,22.771,22.771,0,0,0-1.32,3.63,12.535,12.535,0,0,0-.48,3.18,5.443,5.443,0,0,0,.39,2.01A1.539,1.539,0,0,0,438.3,54.08Zm54.84-13.56a70.731,70.731,0,0,1-4.71,6.24,31.481,31.481,0,0,1-5.55,5.16,25.7,25.7,0,0,1-6.84,3.51,26.7,26.7,0,0,1-8.64,1.29,15.323,15.323,0,0,1-3.39-.36,7.858,7.858,0,0,1-2.73-1.14,5.616,5.616,0,0,1-1.8-2.01,6.069,6.069,0,0,1-.66-2.91,4.522,4.522,0,0,1,1.41-3.51,4.7,4.7,0,0,1,3.27-1.29,3.35,3.35,0,0,1,2.16.72,2.6,2.6,0,0,1,.9,2.16,2.449,2.449,0,0,1-.78,1.98,2.627,2.627,0,0,1-1.74.66,3.448,3.448,0,0,1-1.2-.18,2.107,2.107,0,0,0-.3,1.14,4.087,4.087,0,0,0,1.02,2.97,4,4,0,0,0,3,1.05,4.733,4.733,0,0,0,3.84-1.5,5.414,5.414,0,0,0,1.26-3.6,4.462,4.462,0,0,0-.78-2.46q-.78-1.2-1.71-2.43t-1.71-2.46a4.607,4.607,0,0,1-.78-2.49,6.1,6.1,0,0,1,.66-2.76,7.232,7.232,0,0,1,1.95-2.37,9.6,9.6,0,0,1,3.15-1.65,13.869,13.869,0,0,1,4.26-.6,12,12,0,0,1,5.67,1.17,3.677,3.677,0,0,1,2.19,3.39,3.54,3.54,0,0,1-1.14,2.73,3.852,3.852,0,0,1-2.7,1.05,4.928,4.928,0,0,1-2.58-.72,6.238,6.238,0,0,0,.66-1.38,5.107,5.107,0,0,0,.24-1.62,5.318,5.318,0,0,0-.69-2.7,2.4,2.4,0,0,0-2.25-1.2,2.63,2.63,0,0,0-2.16.96,3.872,3.872,0,0,0-.78,2.52,4.78,4.78,0,0,0,.9,2.79q.9,1.29,1.95,2.55a28.088,28.088,0,0,1,1.95,2.64,5.585,5.585,0,0,1,.9,3.12,6.129,6.129,0,0,1-.93,3.45,8.033,8.033,0,0,1-2.85,2.49l.12.12a19.89,19.89,0,0,0,5.07-2.25,33.291,33.291,0,0,0,4.77-3.57,40.076,40.076,0,0,0,4.23-4.41,45.366,45.366,0,0,0,3.45-4.77Zm-4.44-4.68.42-.96h4.98l5.1-8.7,8.34-.3-5.4,9h8.22l-.48.96H501.6q-.84,1.44-2.31,3.78t-2.91,4.86q-1.44,2.52-2.52,4.86a9.714,9.714,0,0,0-1.08,3.84,1.853,1.853,0,0,0,.57,1.5,2.4,2.4,0,0,0,1.59.48,7.4,7.4,0,0,0,3.3-.87,21.061,21.061,0,0,0,3.51-2.25,32.688,32.688,0,0,0,3.42-3.09q1.65-1.71,3.12-3.39t2.67-3.15q1.2-1.47,1.92-2.37l.48.24q-2.04,2.4-4.32,5.28a50.212,50.212,0,0,1-4.92,5.37,26.9,26.9,0,0,1-5.7,4.14,13.81,13.81,0,0,1-6.66,1.65,5.314,5.314,0,0,1-4.11-1.47,5.412,5.412,0,0,1-1.35-3.81,8.691,8.691,0,0,1,.33-2.37,17.757,17.757,0,0,1,1.17-2.88q.84-1.71,2.22-4.17t3.54-6.18ZM501.66,56l12.12-21.36,8.64-.24-9.18,13.56.12.12a58.261,58.261,0,0,1,6.15-7.62,16.73,16.73,0,0,1,5.01-3.78,15.769,15.769,0,0,1,1.5-1.62,4.839,4.839,0,0,1,1.71-.96,12.14,12.14,0,0,1,2.82-.51q1.77-.15,4.83-.27a19.65,19.65,0,0,0-1.44,1.62,16.292,16.292,0,0,0-1.32,1.92,12.534,12.534,0,0,0-.99,2.1,6.165,6.165,0,0,0-.39,2.1,4.564,4.564,0,0,0,.63,2.34,2.154,2.154,0,0,0,2.01,1.08,4.5,4.5,0,0,0,1.8-.39,8.594,8.594,0,0,0,1.74-1.02,13.154,13.154,0,0,0,1.59-1.41q.75-.78,1.35-1.5l.42.36q-.42.48-1.2,1.41a10.6,10.6,0,0,1-2.07,1.83,13.859,13.859,0,0,1-3.18,1.59,13.241,13.241,0,0,1-4.53.69,7.464,7.464,0,0,1-2.64-.45,6.338,6.338,0,0,1-2.01-1.17,5.158,5.158,0,0,1-1.26-1.68,4.748,4.748,0,0,1-.45-2.04,6.753,6.753,0,0,1,.48-2.82v-.12a16.474,16.474,0,0,0-3.93,3.18,53.714,53.714,0,0,0-4.14,4.89q-2.01,2.67-3.66,5.34a45.5,45.5,0,0,0-2.49,4.47Zm66-21.6q-.66.96-1.71,2.46T563.7,40.1q-1.2,1.74-2.4,3.63t-2.19,3.69a31.567,31.567,0,0,0-1.62,3.36,7.317,7.317,0,0,0-.63,2.64q0,1.74,1.38,1.74a5.457,5.457,0,0,0,2.97-1.2,30.27,30.27,0,0,0,3.75-3.21,61.118,61.118,0,0,0,4.26-4.71q2.22-2.7,4.5-5.7l.36.24q-2.4,3.06-4.68,5.97a57.069,57.069,0,0,1-4.53,5.16,24.712,24.712,0,0,1-4.5,3.63,8.684,8.684,0,0,1-4.59,1.38,6.035,6.035,0,0,1-3.12-.66,4.181,4.181,0,0,1-1.59-1.65,5.473,5.473,0,0,1-.6-2.07q-.09-1.08-.09-1.92l-.18-.12q-.96,1.14-2.07,2.28a17.246,17.246,0,0,1-2.43,2.07,13.251,13.251,0,0,1-2.76,1.5,8.238,8.238,0,0,1-3.06.57,5.422,5.422,0,0,1-4.35-1.71q-1.47-1.71-1.47-5.49a12.654,12.654,0,0,1,1.32-5.43,17.14,17.14,0,0,1,3.75-5.1,20.358,20.358,0,0,1,5.79-3.81,17.9,17.9,0,0,1,7.38-1.5,4.986,4.986,0,0,1,3.57,1.17,5.432,5.432,0,0,1,1.59,2.91h.12l1.56-3.12ZM543.84,54.08a5.765,5.765,0,0,0,3.24-1.62,24.488,24.488,0,0,0,3.9-4.14,29.615,29.615,0,0,0,3.3-5.49,13.46,13.46,0,0,0,1.38-5.67,2.569,2.569,0,0,0-.81-2.07,2.747,2.747,0,0,0-1.83-.69,4.657,4.657,0,0,0-2.55.84,12.3,12.3,0,0,0-2.52,2.25,25.165,25.165,0,0,0-2.34,3.18,31.542,31.542,0,0,0-1.95,3.6,22.771,22.771,0,0,0-1.32,3.63,12.534,12.534,0,0,0-.48,3.18,5.442,5.442,0,0,0,.39,2.01A1.539,1.539,0,0,0,543.84,54.08ZM569.22,32.6a22.772,22.772,0,0,0,4.41-.66,13.22,13.22,0,0,0,3.84-1.62,10.327,10.327,0,0,0,2.91-2.76,9.4,9.4,0,0,0,1.56-4.2q-.48.18-1.02.39a3.465,3.465,0,0,1-1.26.21,2.69,2.69,0,0,1-1.92-.81,3.06,3.06,0,0,1-.84-2.31,4.154,4.154,0,0,1,1.17-2.97,4.3,4.3,0,0,1,3.27-1.23,4.212,4.212,0,0,1,3.45,1.5,5.326,5.326,0,0,1,1.23,3.48,9.011,9.011,0,0,1-1.47,4.86,11.6,11.6,0,0,1-4.23,3.9,18.913,18.913,0,0,1-5.76,2.07,34.669,34.669,0,0,1-5.34.63Zm14.4,0a22.773,22.773,0,0,0,4.41-.66,13.221,13.221,0,0,0,3.84-1.62,10.327,10.327,0,0,0,2.91-2.76,9.4,9.4,0,0,0,1.56-4.2q-.48.18-1.02.39a3.466,3.466,0,0,1-1.26.21,2.69,2.69,0,0,1-1.92-.81,3.06,3.06,0,0,1-.84-2.31,4.154,4.154,0,0,1,1.17-2.97,4.3,4.3,0,0,1,3.27-1.23,4.212,4.212,0,0,1,3.45,1.5,5.326,5.326,0,0,1,1.23,3.48,9.011,9.011,0,0,1-1.47,4.86,11.6,11.6,0,0,1-4.23,3.9,18.913,18.913,0,0,1-5.76,2.07,34.669,34.669,0,0,1-5.34.63Z" transform="translate(21.97)" fill="#fff"/><path d="M41.25-32.344H38.2q1.172-6.8,6.094-9.375l.7.938A11.266,11.266,0,0,0,41.25-32.344Zm7.266,0H45.234q1.172-6.8,6.094-9.375l.7.938A11.682,11.682,0,0,0,48.516-32.344Zm48.4-10.9a20.816,20.816,0,0,1-9.434,2.227q-.527-1.7.586-1.963a11.263,11.263,0,0,0,2.227-.791q3.281-.586,2.168-2.812a16.843,16.843,0,0,0,2.813,1.113Q96.914-45.469,96.914-43.242ZM77.461-33.809a23.829,23.829,0,0,0-2.754,21.68Q69.727-17.7,71.4-24.346t2.783-12.8A5.077,5.077,0,0,1,77.461-33.809Zm32.813-1.113a9.464,9.464,0,0,1-2.227.85,3.484,3.484,0,0,0-1.7.85A32.073,32.073,0,0,1,98.613-31a9.379,9.379,0,0,1-1.7,2.227,1.743,1.743,0,0,0,.586,2.754,8.915,8.915,0,0,1,2.49-.85,2.454,2.454,0,0,1,2.49,1.377,8.377,8.377,0,0,1,.293,5.6,8.326,8.326,0,0,0,.82,6.123A17.04,17.04,0,0,1,96.914,3.4q-.527-.527-.82-.527t1.67-1.67q1.963-1.67,3.6-6.65a5.549,5.549,0,0,0-5.83,1.113,4.735,4.735,0,0,1-5.244,1.113A4.128,4.128,0,0,1,88.33-5.449a3.3,3.3,0,0,1,.264-2.227q1.113-5.039,2.227-10.02a1.717,1.717,0,0,1,.527-1.113.466.466,0,0,0-.527-.527q-.527,0-.527-1.406a4.669,4.669,0,0,1,1.641-3.076,5.387,5.387,0,0,0,1.641-3.9,1.848,1.848,0,0,0-2.2-.527,3.668,3.668,0,0,0-1.67,1.641q-5.566,2.813-6.387,8.35t-1.406,11.1a4.3,4.3,0,0,1-1.934.586H78.574a9.7,9.7,0,0,1-2.227-6.152q1.113,0,1.67,1.406a3.3,3.3,0,0,0,2.256,1.934q.527-5.508,1.113-10.547a2.272,2.272,0,0,0-2.256,1.113,3.8,3.8,0,0,1-1.67,1.7q0-2.812,1.67-3.926A24.3,24.3,0,0,0,82.5-23.789a16.689,16.689,0,0,1,2.754-11.133,14.967,14.967,0,0,0,1.113-1.113h.586a31.932,31.932,0,0,1-1.7,4.746,6.52,6.52,0,0,0,0,5.273l6.68-4.453A1.568,1.568,0,0,1,93.047-31a9.379,9.379,0,0,1-1.7-2.227,1.5,1.5,0,0,1,1.7-1.7,6.329,6.329,0,0,0,7.764.293,10.214,10.214,0,0,1,8.35-1.406ZM101.367-8.789l-1.113-15a3.4,3.4,0,0,0-3.047.264,2.736,2.736,0,0,0-1.406,2.49,3.225,3.225,0,0,1,3.34,1.113,2.456,2.456,0,0,1-.264,2.52A14.372,14.372,0,0,0,97.5-14.355a12.854,12.854,0,0,0,1.641,2.49,3.142,3.142,0,0,1,.586,3.076ZM95.8-18.223l-1.641-.586A26.763,26.763,0,0,0,91.348-6.562a9.014,9.014,0,0,0,2.813-.586A6.737,6.737,0,0,1,95.8-9.9q.586-2.227-1.113-2.227A6.082,6.082,0,0,1,95.8-18.223Zm63.75-22.734q-.7,9.492-1.934,19.746a7.988,7.988,0,0,0,4.775-.352q2.842-.937,4.717,2.227a.977.977,0,0,0-.937.645,3.092,3.092,0,0,0-.293,1.289,18.449,18.449,0,0,0-8.262,1.875,20.049,20.049,0,0,0-1.26,3.516,4.128,4.128,0,0,0,1.26,4.16q1.934,3.809,5.391,2.2a9.579,9.579,0,0,1,7.324-.322,2.5,2.5,0,0,0-.7,1.934V-3.4A14.475,14.475,0,0,0,164.268,0a10.61,10.61,0,0,1-5.42,2.93A6.019,6.019,0,0,1,160.811,0a5.716,5.716,0,0,0,1.846-2.227,9.8,9.8,0,0,1-8.2-5.039q-.645-3.809-1.289-6.973a92.987,92.987,0,0,0-12.012,4.453,52.575,52.575,0,0,1-8.32,4.453,6.468,6.468,0,0,1-2.461-2.52,30.432,30.432,0,0,1,8.2-22.969q0-4.453-3.164-6.328,0-1.289.967-1.289a4.843,4.843,0,0,1,2.2.645,10.959,10.959,0,0,0,1.9,2.52,5.239,5.239,0,0,1,1.26,3.809,36.705,36.705,0,0,0-9.492,21.68,1.932,1.932,0,0,0,2.842-.029,5.392,5.392,0,0,1,3.486-1.26q6.387-2.578,12.656-5.742-1.289-2.52,1.289-3.105a2.253,2.253,0,0,0,2.52-2.578q1.289-8.965,1.934-17.227a7.128,7.128,0,0,0-2.52-3.223h-2.52a2.609,2.609,0,0,1,.293-1.553q.293-.322.938-.967a3.21,3.21,0,0,1,3.486.938A20.886,20.886,0,0,1,159.551-40.957Zm-6.387,8.848q-2.52,5.8-5.1,12.188a3.3,3.3,0,0,1-3.809-1.289,6.7,6.7,0,0,0-2.52-3.223,10.964,10.964,0,0,1-.586-3.164q0-1.289,1.875-1.934,1.934,0,1.23,1.934a3.529,3.529,0,0,0,1.289,2.52,32.471,32.471,0,0,0,3.516-4.16A7.063,7.063,0,0,1,153.164-32.109Zm67.148-11.426a28.1,28.1,0,0,1-7.793,9.492q2.227,0,3.867,2.754-3.867,2.227-7.207,4.453a1.568,1.568,0,0,0-.527,1.113q3.867,4.98,9.141,2.2a12.366,12.366,0,0,1,10.84-.557q.527,0,1.084.85a3.5,3.5,0,0,1,.557,1.963,2.423,2.423,0,0,1-2.227-.029q-1.113-.557-1.641.029a43.092,43.092,0,0,0-11.924,1.67q-5.83,1.67-6.943,8.291V-10.2a9.966,9.966,0,0,1,9.961-3.34q3.34,1.7.586,3.926a5.39,5.39,0,0,0-2.812,4.98,5.162,5.162,0,0,0,2.227-.527q1.7-.586,2.813,1.641a30.11,30.11,0,0,1-8.906,6.094A2.859,2.859,0,0,1,212.52.117a17.514,17.514,0,0,1,2.227-1.406q-3.34-1.641-2.812-4.453a2.94,2.94,0,0,1,1.113-2.49A2.445,2.445,0,0,0,214.16-10.2a6.926,6.926,0,0,0-4.687,1.67,12.491,12.491,0,0,0-3.047,3.9q-.586.586-.029,1.963a2.14,2.14,0,0,1-.557,2.49Q204.727-.7,203.906-1t-.82-.82A29.112,29.112,0,0,1,207.539-17.4a57.165,57.165,0,0,0-8.906,3.047,8.812,8.812,0,0,1-8.32-.293q-.586-1.055,0-1.055a2.1,2.1,0,0,1,1.641-.586,5.9,5.9,0,0,0,5.01,0A14.82,14.82,0,0,1,202.5-17.4a4.012,4.012,0,0,1,3.926-2.227q2.754-.527,2.227-2.754a14.937,14.937,0,0,1-3.34-3.34,9.945,9.945,0,0,1,2.754-2.812h.586q-.586-1.113-1.406-.82a4.3,4.3,0,0,1-1.406.293q-.527-1.113-.82-1.67a.9.9,0,0,0-.82-.557q0-1.113.557-.82t1.67.82A43.789,43.789,0,0,0,217.5-43.535a3.178,3.178,0,0,0-3.047-.557,25.876,25.876,0,0,0-2.52,1.143,8.178,8.178,0,0,1,4.189-2.227A3.965,3.965,0,0,1,220.313-43.535Zm-17.227,1.113v1.7A3.207,3.207,0,0,0,204.2-38.5q1.113-.586,2.227-1.113h.527q.586,1.113-1.113,1.641-1.113,0-1.641,1.7-2.812-.586-3.34-2.812.527-1.113,1.113-2.227A.984.984,0,0,1,203.086-42.422Zm71.66-2.52q-.586,2.813-1.113,5.566a26.72,26.72,0,0,0,4.717-1.641q2.49-1.113,4.717,1.113a52.42,52.42,0,0,1-11.133,12.773,24.706,24.706,0,0,1-2.227,14.414,47.736,47.736,0,0,0,13.359-11.074,3.41,3.41,0,0,0-1.113-1.406q-.527-.293-1.113.293a33.981,33.981,0,0,0-3.867,2.227v.527a3.746,3.746,0,0,1,1.67-3.34,13.376,13.376,0,0,1,3.311-1.641q1.113-1.113,1.641,0A6.65,6.65,0,0,0,285.82-24.9a6.989,6.989,0,0,1-2.754,4.424,18.751,18.751,0,0,0-3.867,3.9q4.98,1.113,10.547,2.227a3,3,0,0,1,2.227-.293,2.568,2.568,0,0,1,1.641,1.934,149.414,149.414,0,0,0-17.754,0,23.541,23.541,0,0,0-1.113,14.473,1.717,1.717,0,0,0,.527,1.113,8.518,8.518,0,0,1-6.68.527,12.856,12.856,0,0,1-2.2-11.367q1.67-5.859,3.311-11.367a10.945,10.945,0,0,0,0-5.039,23.746,23.746,0,0,0-8.027,7.236,33.236,33.236,0,0,1-7.5,7.764q-2.754-.527-3.311-2.49t-1.143-3.6a7.01,7.01,0,0,0,1.143-1.377,2.761,2.761,0,0,0,.557-1.377,17.985,17.985,0,0,0,5.508-6.152v-2.754a19.128,19.128,0,0,0-4.98,1.641,6.4,6.4,0,0,1-4.453.586q-.527-1.113-1.113-2.227a1.412,1.412,0,0,1,1.7-.85,12.176,12.176,0,0,0,2.754.264,32.3,32.3,0,0,0,6.094-3.867,33.586,33.586,0,0,1,.586-10.547,17.341,17.341,0,0,0,3.047,3.311,7.008,7.008,0,0,0,4.746,1.67q0,.586,1.113.586a2.238,2.238,0,0,1,.527,1.641q-2.227,1.113-4.717,2.52a4.508,4.508,0,0,0-2.49,4.16q0-1.113.527-.586a6.086,6.086,0,0,1,1.113,1.7,39.328,39.328,0,0,1,4.453,3.867q6.094-7.207,12.246-13.887a20.643,20.643,0,0,0-5.039,1.7,5.862,5.862,0,0,1-2.754-.586,16.118,16.118,0,0,1,1.113-6.094q1.113-3.34-1.7-3.867a2.035,2.035,0,0,1,2.52-1.406A3,3,0,0,1,274.746-44.941ZM262.5-35.449a4.481,4.481,0,0,1-1.67-1.406q-.557-.82-1.084-.82a8.717,8.717,0,0,1-.293,2.227,2.279,2.279,0,0,0,.82,2.227v-.586A8.135,8.135,0,0,1,262.5-35.449Zm-.527,12.773q-1.7-2.227-3.34-.586a7.243,7.243,0,0,1-1.7,2.813,18.151,18.151,0,0,1-3.867,3.867q-2.754,2.227,0,4.98A18.846,18.846,0,0,0,261.973-22.676ZM271.406.645l.527-10.02h-.527a6,6,0,0,0-2.812.586.466.466,0,0,0-.527.527v6.152a4.444,4.444,0,0,0,.527,1.641A3.812,3.812,0,0,0,271.406.645Zm44.063-3.223h3.047q-1.172,6.563-6.094,8.906l-.7-.937Q315.469,1.641,315.469-2.578Zm86.484-32.051a.719.719,0,0,1-1.113,0v.527a5.9,5.9,0,0,1,0,5.01,16.344,16.344,0,0,0-1.113,6.123,5.877,5.877,0,0,0,0,6.094,13.916,13.916,0,0,1,7.793,0,6.328,6.328,0,0,1,1.113,2.227,5.162,5.162,0,0,1-2.227.527q-.586.586,0,1.7a28.782,28.782,0,0,1-12.773,6.68q4.98-3.926,10.547-7.793a3.847,3.847,0,0,0-3.926-1.113,3.024,3.024,0,0,1-3.867-.586,62.252,62.252,0,0,0,2.227-19.98q-.586-1.113-1.406-.82t-.82.82a2.59,2.59,0,0,1,2.754-2.227Q401.367-37.441,401.953-34.629ZM375.82-30.234q-4.453,7.793,1.7,15.586,1.113-1.7,2.49-3.633t4.131-.82a6.086,6.086,0,0,0,1.7,1.113l.527.527a46.8,46.8,0,0,0,5.566-9.434h0a.518.518,0,0,0,.586.586v-2.227a1.717,1.717,0,0,1,1.113.527q-2.227,5.039-3.926,10.02a2.238,2.238,0,0,0-.527,1.641q.527,0,.527.586v2.227a6.629,6.629,0,0,1-4.98-1.7q-2.227-2.754-3.34.586a2.524,2.524,0,0,0-.586,2.754q0,2.227-1.641,2.227-6.68-4.453-7.207-11.66A11.179,11.179,0,0,1,375.82-30.234ZM453.4-45.645a6.851,6.851,0,0,1-.645,2.666,3.3,3.3,0,0,0,.645,3.311,2.116,2.116,0,0,1,1.553-.645,3.42,3.42,0,0,1,2.139,1.172,14.975,14.975,0,0,1-4.98,2.4,14.207,14.207,0,0,1-1.816,3.545,3.857,3.857,0,0,0,0,4.189q3.105-1.172,6.211-2.666a8.9,8.9,0,0,1,6.855-.264,5.979,5.979,0,0,0,1.23,1.758h-1.23q-.586,0-3.428.322t-7.119,3.9V-26.6a5.648,5.648,0,0,0-2.52,4.8,9.934,9.934,0,0,1,2.783-.937,2.739,2.739,0,0,1,2.783,1.465q.645,0,.322.908a4.686,4.686,0,0,0-.322,1.494,17.014,17.014,0,0,0-6.211,7.793,6.146,6.146,0,0,0,3.75,0,2.15,2.15,0,0,1,2.461,2.4,13.355,13.355,0,0,0-6.8,4.16,2.658,2.658,0,0,1-.322,2.666,2.886,2.886,0,0,0,.322,3.311,3.162,3.162,0,0,1,1.523-.908q.938-.264,2.227.908,5.566-2.4,12.393-4.775t6.826-9.58q.645,0,0,.645-.645.586,0,1.758a9.583,9.583,0,0,1-1.23,6.563,63.537,63.537,0,0,1-16.172,5.977q-5.566.527-11.162,1.436A11.938,11.938,0,0,1,433.535.82q-2.52-5.332.586-9.492a6.113,6.113,0,0,1,4.395-1.816q3.047-1.172,1.816-3.574a10.248,10.248,0,0,1,4.98-4.16q4.336-1.23,3.105-4.8a4.721,4.721,0,0,1-.586-2.051q0-.879-.7-.879a44.324,44.324,0,0,1-17.93,6.5q-1.875-1.172-1.26-2.373a5.411,5.411,0,0,1,1.26-1.729,1.737,1.737,0,0,1,.586-1.23h.586A8.392,8.392,0,0,1,430.078-23a1.371,1.371,0,0,0,.938,1.729q6.27-2.285,13.066-4.16a5.476,5.476,0,0,0,3.105-3.838,22.859,22.859,0,0,1,1.875-5.068,3.64,3.64,0,0,0-2.49-1.172h-2.49a3.1,3.1,0,0,1,2.813-2.139,4.654,4.654,0,0,0,3.4-2.021,5.4,5.4,0,0,1-.029-3.633q.615-1.816-.615-2.344h-1.23q.645-1.875,2.168-1.875A3.545,3.545,0,0,1,453.4-45.645Zm-6.27,29.18a2.287,2.287,0,0,0-1.494.322q-.322.322-.908.85a3.543,3.543,0,0,0-3.428,1.816,3.3,3.3,0,0,0,.264,3.633,8.656,8.656,0,0,0-6.211,2.4q-1.816,4.688,1.23,9.492a61.905,61.905,0,0,0,8.145-.586q-1.23-5.391-1.875-10.137.645.586,1.23,1.23v-1.23l-.586-.645q0-1.172.586-.527a1.764,1.764,0,0,0,1.875,0Q448.418-13.418,447.129-16.465Zm0,12.539a1.712,1.712,0,0,0-1.2-.586q-.615,0-.615.586a6.178,6.178,0,0,0,1.23,3.574,6.706,6.706,0,0,1,.293-2.109A4.82,4.82,0,0,0,447.129-3.926ZM510-41.25a78.858,78.858,0,0,0-12.187,9.961,14.82,14.82,0,0,0,.527,8.906l1.143-1.143a6.013,6.013,0,0,1,1.67-1.084,4.94,4.94,0,0,0-.557-2.227q-.557-1.113-.029-1.641a3.207,3.207,0,0,1,2.227,1.113q1.113,1.113,1.67.264a2.761,2.761,0,0,0,.557-1.377,6.83,6.83,0,0,1,2.813-5.566A3.023,3.023,0,0,1,510-32.93q-1.055,1.113.586,2.227,2.227-1.113,4.453-2.52a6.464,6.464,0,0,1,4.98-.82,2.445,2.445,0,0,1,1.963,1.113,2.761,2.761,0,0,1,.264,2.754q-1.113,0-1.377.557a2.07,2.07,0,0,0,.264,1.67,24.3,24.3,0,0,1,4.453,1.67q2.227,1.084,2.754,4.424a2.238,2.238,0,0,1-1.641-.527q0-1.113-.586-1.113a7.611,7.611,0,0,0-7.734-2.227A19.342,19.342,0,0,0,512.52-21.3a10.132,10.132,0,0,1-5.8,3.369l-1.7-1.7a1.868,1.868,0,0,0-1.377,2.256,2.706,2.706,0,0,1-1.377,2.783q-4.453,3.34-8.906,1.113a2.533,2.533,0,0,1-1.377-1.7,1.33,1.33,0,0,1,.85-1.641,31.741,31.741,0,0,1,2.49-2.227,2.34,2.34,0,0,0,.791-2.812,20.247,20.247,0,0,1,0-9.434,4.764,4.764,0,0,1-2.2-.557,4.088,4.088,0,0,0-1.67-.557q-.527-1.113,0-1.641a2.3,2.3,0,0,1,1.7-.586.886.886,0,0,0,.527.85,3.852,3.852,0,0,0,1.641.264,21.785,21.785,0,0,0,2.52-5.8,11.6,11.6,0,0,1,3.047-5.273l.586.527a2.77,2.77,0,0,1,1.113-3.34,6.682,6.682,0,0,1,3.047,2.52A18.424,18.424,0,0,0,510-41.25Zm-3.867-1.113a3.5,3.5,0,0,0-.557-1.963q-.557-.85-1.67-.264a6.737,6.737,0,0,0-1.641,2.754,15.756,15.756,0,0,1-1.7,2.49,3.033,3.033,0,0,0-.527,3.076,1.568,1.568,0,0,1,.527-1.113,51.313,51.313,0,0,1,5.566-3.867ZM519.492-30.7a2.268,2.268,0,0,0-.557-1.67,1.627,1.627,0,0,0-1.143-.557A25.844,25.844,0,0,0,510-28.477h-.527a11.566,11.566,0,0,0-1.641,3.867,22.827,22.827,0,0,1,6.094-2.49A10.252,10.252,0,0,0,519.492-30.7Zm-23.379-1.7h0Zm16.7,8.32a6.959,6.959,0,0,0-6.094,3.34q-.586.586-.029.85a4.068,4.068,0,0,0,1.67.264A12.792,12.792,0,0,0,512.813-24.082Zm-10.02,2.227q-1.641-1.113-2.227,0a3.058,3.058,0,0,0-1.113,1.963,1.765,1.765,0,0,0,.586,1.377q0,.586,1.113.586A26.691,26.691,0,0,0,502.793-21.855ZM498.34-14.59a2.262,2.262,0,0,0,0-2.227,14.967,14.967,0,0,0-1.113-1.113A5.582,5.582,0,0,0,495-15.176a2.656,2.656,0,0,1,1.406.557A1.847,1.847,0,0,0,498.34-14.59Zm15.586,0q-2.227,1.641-4.16,3.018a6.526,6.526,0,0,0-2.52,4.189,5.162,5.162,0,0,0-.527,2.227q0,1.113,1.641,1.641a12.825,12.825,0,0,1,2.227-.82,3.52,3.52,0,0,1,2.754.82,11.534,11.534,0,0,1-6.094,7.793,5.745,5.745,0,0,0-2.49-.527q-1.377,0-1.377-1.113,1.113,1.113,2.783,0A18.243,18.243,0,0,0,508.945.41,7.137,7.137,0,0,1,510-1.289a17.654,17.654,0,0,1-3.838-1.377,2.684,2.684,0,0,1-1.67-2.49,17.3,17.3,0,0,0,.527-3.926q-1.113-1.113-2.227-2.2a1.362,1.362,0,0,1,0-2.2h1.113a2.11,2.11,0,0,0,3.34,0,15.346,15.346,0,0,1,3.867-2.812A3.283,3.283,0,0,1,513.926-14.59ZM524.473-4.043a6.568,6.568,0,0,0-1.934,1.377,6.568,6.568,0,0,1-1.934,1.377V-4.336a1.946,1.946,0,0,0-1.113-1.934V-7.383h.527a9.892,9.892,0,0,1,2.813.527Q524.473-6.27,524.473-4.043ZM503.379-1.816A30.6,30.6,0,0,0,498.926.938a3.656,3.656,0,0,1-2.52.293,3.9,3.9,0,0,1-1.934-.82q-1.113-1.7.527-2.227,0-.586.293-.586t.293.586l.527.527a10.593,10.593,0,0,0,3.369-.557A6.778,6.778,0,0,1,503.379-1.816Zm58.3-42.246a32.091,32.091,0,0,0,1.113,14.473q3.867-4.453,10.547-3.926a56.624,56.624,0,0,0,6.094-7.207,44,44,0,0,0-11.66,3.867,5.361,5.361,0,0,1,4.453-3.9,17.368,17.368,0,0,0,6.094-2.2,4.365,4.365,0,0,1,4.453,3.34,5.128,5.128,0,0,1-1.641,1.934,19.664,19.664,0,0,0-2.227,1.934,23.151,23.151,0,0,0-6.152,8.32,1.092,1.092,0,0,0,.293.85,8.483,8.483,0,0,0,1.406.85h2.49a3.09,3.09,0,0,1,2.49,1.641q-1.641,1.113-3.311,2.227a3.746,3.746,0,0,0-1.67,3.34,3.566,3.566,0,0,0,2.227,3.34q2.227,2.227,0,4.453a3.8,3.8,0,0,1-1.7,1.67,2.216,2.216,0,0,0-1.113,2.2,9.457,9.457,0,0,1,3.926-.264,6.278,6.278,0,0,1,3.867,1.963,5.862,5.862,0,0,1,.586,2.754,20.213,20.213,0,0,1-10.605,4.453A18.561,18.561,0,0,1,575.273-.7a8.829,8.829,0,0,0,3.047-2.812,1.568,1.568,0,0,1-.527-1.113q-6.152,1.7-12.246,3.34a14.967,14.967,0,0,1-1.113,1.113.984.984,0,0,1-1.113-1.113,1.648,1.648,0,0,1,.586-1.113,25.383,25.383,0,0,0,4.98-3.867,3.566,3.566,0,0,0-3.34-2.227q-3.34-.586-2.227-2.812a25.035,25.035,0,0,1,4.746-2.754,6.818,6.818,0,0,0,3.574-3.34,4.173,4.173,0,0,0-3.838.85,38.267,38.267,0,0,1-3.369,2.49,8.385,8.385,0,0,0-3.047,1.963,4.3,4.3,0,0,1-3.047,1.377l-1.113-1.113a25.648,25.648,0,0,1,3.867-5.83,27.176,27.176,0,0,0,3.926-5.83,21.889,21.889,0,0,1-4.453-21.094q0-.586.264-.293T561.68-44.062ZM570-30.7a2.761,2.761,0,0,0-2.754.264,12.524,12.524,0,0,1-2.227,1.377,1.249,1.249,0,0,0-.293,1.406,2.51,2.51,0,0,0,1.406,1.348,3.29,3.29,0,0,0,2.2-1.9A7.453,7.453,0,0,1,570-30.7Zm1.641,7.734v-1.113a31.22,31.22,0,0,0-4.98,2.52,6.443,6.443,0,0,0-2.754,4.746,13,13,0,0,1,4.16-2.812A6.818,6.818,0,0,0,571.641-22.969ZM570.586-9.082v-2.227q-1.113-.527-1.7,0a.99.99,0,0,0-.264,1.143.863.863,0,0,0,.82.557A1.74,1.74,0,0,1,570.586-9.082Zm37.852-24.434.7,1.172a13.279,13.279,0,0,0,6.094-9.375h-3.047Q611.25-36.094,608.438-33.516Zm7.031,0,.7,1.172q4.922-2.812,6.094-9.375h-3.047A12.253,12.253,0,0,1,615.469-33.516Z" transform="translate(-5 142)" fill="#fff"/></g></svg>