<svg xmlns="http://www.w3.org/2000/svg" width="63.676" height="22.44" viewBox="0 0 63.676 22.44"><path d="M9.011,2.409q.386-.491.676,0A1.9,1.9,0,0,1,9.2,4.57,1.887,1.887,0,0,1,7.079,5.748q-.386.1-.1.2a3.365,3.365,0,0,1,1.063.786l.1.1a.12.12,0,0,0,.193,0,1.123,1.123,0,0,1,.29-.2l.29-.295q.193-.295.676-.1,1.642.687.869,1.277-.193.2-.676.589l-.676.687-.1.1a.424.424,0,0,0,0,.393,1.882,1.882,0,0,0,.1.589,1.388,1.388,0,0,0,.1.589q0,.2.29,0a2.814,2.814,0,0,1,.966-.589q.193,0-.29.491-.966.982-.773,1.08.1.687.193,1.866a1.882,1.882,0,0,0,.1.589q0,.295.193.1.29-.393.676-.884a2.287,2.287,0,0,1,.386-.589q.193-.295.29-.295.1-.1.29.1.29.295-.386,1.277-.483.687-1.256,1.669-.58.786-.966,1.277a8.338,8.338,0,0,1-2.125,2.16q-.676.491-1.932,1.473-.676.589-.869.589-.1,0,.386-.589a67.091,67.091,0,0,0,4.926-5.5,1.629,1.629,0,0,0-.1-.393q.193.2,0-.1a1.219,1.219,0,0,1-.193-.491q-.1-.687-.193-1.768,0-.295-.193,0a6.97,6.97,0,0,1-3.091,2.357.65.65,0,0,0-.483.2H4.858q-.58.295-.676,0-.193-.393.29-.884A42.6,42.6,0,0,0,7.562,9.284v-.2a.733.733,0,0,0-.29.1Q5.051,10.462,3.8,9.677q-.676-.295.58-.982L5.92,8.105a2.422,2.422,0,0,1,.58-.295,9.419,9.419,0,0,1,.966-.589q.29-.1.1-.295Q6.017,5.847,6.79,5.454l.1-.2A15.207,15.207,0,0,0,9.011,2.409Zm4.443,1.277q.1-.393.29-.393a.788.788,0,0,1,.483.295,1.08,1.08,0,0,1,0,1.473,3.21,3.21,0,0,0-.386.491,5.926,5.926,0,0,1-.386.491q-.193.2.193.1a5.694,5.694,0,0,1,2.415-.491,1.376,1.376,0,0,1,1.159.393,2.587,2.587,0,0,1,0,1.964,5.354,5.354,0,0,1-1.835,2.946q-.869.884-1.352.295-.483-.295,0-.589,2.125-1.866,2.028-3.634,0-.393-.386-.295-2.125.393-2.511.491A1.95,1.95,0,0,1,14.227,8.6q.29,1.08-.966,1.866-.386.295-.966.687a2.58,2.58,0,0,1-.676.491q-1.449,1.08-.869.2A9.208,9.208,0,0,0,12.3,8.989a5.349,5.349,0,0,1,.676-1.669,2.192,2.192,0,0,1-1.063.1q-.193-.2.193-.786A10.027,10.027,0,0,0,13.455,3.686ZM8.432,9.971a13.247,13.247,0,0,0-1.545,2.16q-.1.2.1.1l.58-.393a8.653,8.653,0,0,1,1.063-.786q.1,0,.1-.295a6.121,6.121,0,0,0-.1-.786A.12.12,0,0,0,8.432,9.971Zm2.318,5.5q.1-.393.869.2a5.259,5.259,0,0,1,.869,2.553,4.292,4.292,0,0,0,.1.786,2.727,2.727,0,0,0,.1.589,3.1,3.1,0,0,1-.676,2.553q-.58.393-.966-.295a1.01,1.01,0,0,0-.58-.884q-.29-.2-.29-.393.1-.1.483,0,.386.2.483-.295a7.538,7.538,0,0,0-.193-3.732A1.1,1.1,0,0,1,10.75,15.471Zm3.188.687q-.1-.295.1-.295.1-.1.483,0a1.417,1.417,0,0,1,.773.884q0,.491-.676.687-.29.1-.29.2t.386.2a4.766,4.766,0,0,1,1.159.589.613.613,0,0,1-.193.786,1.311,1.311,0,0,1-1.159.295q-.386.1-.483,0t.29-.295q.58-.491.1-.687-.966-.491-.58-1.768A2.727,2.727,0,0,0,13.938,16.158ZM9.977,18.22a1.407,1.407,0,0,1,.483-.295q.1.1-.193.491a3.21,3.21,0,0,0-.386.491,6.136,6.136,0,0,0-.773,1.277q-.58.786-.966,0a1.462,1.462,0,0,1,0-1.277,2.93,2.93,0,0,0,.1-.687q.1-.491,1.063.1Q9.494,18.711,9.977,18.22Zm9.852-.982q-.1.589-.386.589-.29-.1-.676-.786a5.015,5.015,0,0,0-2.511-1.768,42.425,42.425,0,0,1-4.25-1.768q-.29-.2-.193-.295t.58,0a36.89,36.89,0,0,1,5.8,2.062Q19.83,16.256,19.83,17.238Zm19.7-13.65q1.739,1.277-.386,3.143l-1.159.982q-.483.393-.58.491a15.477,15.477,0,0,1-1.835,1.571q-.29.2,0,.2a2.906,2.906,0,0,1,2.511,2.16q0,.295.29.2a15.069,15.069,0,0,1,2.125.1,1.72,1.72,0,0,1,.966.491Q42.046,14,40.5,14H38.762q-.29.1-.193.2.58,4.616-1.256,6.285a2.246,2.246,0,0,1-2.608.1A7.644,7.644,0,0,1,32.29,18.22q-.869-.982.386-2.75a5.622,5.622,0,0,1,3.864-2.75.315.315,0,0,0,.193-.295,4.236,4.236,0,0,0-1.352-2.062q-.58-.1.1-.982a15.344,15.344,0,0,0,3.091-4.714q.1-.295-.193-.1a19.112,19.112,0,0,1-4.347,2.946Q32.29,8.4,31.517,6.239q-.193-.295-.1-.393a.388.388,0,0,1,.386-.2,3.23,3.23,0,0,0,1.449-.2,17.369,17.369,0,0,0,2.8-1.277Q38.472,3,39.535,3.588Zm-2.608,10.7q0-.1-.193-.1a5.92,5.92,0,0,0-3.864,2.652q-.29.687.193.982A4.331,4.331,0,0,0,35.285,19.4a.468.468,0,0,0,.58-.295Q37.216,17.827,36.927,14.292ZM60.4.838a1.137,1.137,0,0,1,.676,0,2.6,2.6,0,0,1,1.256,1.571,1.984,1.984,0,0,0,1.159-.2q.193-.2,1.159,0,.29.2,0,.491a2.622,2.622,0,0,0-1.256.786,1.5,1.5,0,0,1-.869.589,3.561,3.561,0,0,1-.869.687A9.919,9.919,0,0,0,60.5,5.945q-.386.295.1.2t1.256-.2q.483.1.58.295a.479.479,0,0,1-.29.589,14,14,0,0,0-1.739.982,3.108,3.108,0,0,1-.869.295,19.7,19.7,0,0,0-3.574,3.241q-.29.2.1.1a26.468,26.468,0,0,1,7.824-3.437q2.415-.589,3.091.295a.914.914,0,0,1-.1,1.375,4.039,4.039,0,0,1-1.449,1.08q-1.835.884-3.477,1.866-.483.2-.1-.2,1.545-1.08,3.188-2.455.869-.884.773-1.277-.386-.393-1.642-.1a6.546,6.546,0,0,1-1.835.491,17.12,17.12,0,0,0-5.409,2.553,3.405,3.405,0,0,1-1.256.884.57.57,0,0,0-.193.393q-.1.491-.483.491t-.386-.491a.891.891,0,0,1,.29-.786q.869-.982,1.159-1.375A23.562,23.562,0,0,1,59.24,7.712q-.1,0-.193-.393-.29-.2.1-.884.193-.2.966-1.08a11.237,11.237,0,0,1,.869-1.08,6.705,6.705,0,0,1-3.96.491q-.29,0-.29-.2,0-.1.29-.2.193-.1,1.063-.393A18.181,18.181,0,0,1,60.688,2.9a1.4,1.4,0,0,0-.966-1.277q-.58-.491,0-.786a.553.553,0,0,0,.386.1A.733.733,0,0,1,60.4.838Zm1.352,10.41a.446.446,0,0,1,.483.295q0,.295-.483.589-1.932,1.964-2.7,2.652a2.224,2.224,0,0,1,2.511,2.062A27.721,27.721,0,0,1,64.069,13.6a.19.19,0,0,1,.29.1q.1.884-.386,1.178t-.483.589a4.24,4.24,0,0,1-1.545,1.473,2.538,2.538,0,0,0,1.159.295l.386.1a1.137,1.137,0,0,0,.676,0,1.105,1.105,0,0,0,.773.2A2.322,2.322,0,0,1,66,18.22q.193.491,0,.687t-.676,0h-.29a1.736,1.736,0,0,0-.966-.1q-.483.2-.58.1t.29-.491q.193-.1.193-.2t-.193-.2l-2.028-.687a10.235,10.235,0,0,0,.386,2.455,3.135,3.135,0,0,1-.966,3.044,1.531,1.531,0,0,1-1.545.295,2.272,2.272,0,0,0-1.063-.393q-.193-.1-.193-.2a.39.39,0,0,1,.29-.1,2.361,2.361,0,0,0,2.222-1.178,8.32,8.32,0,0,0-.386-4.91,1.144,1.144,0,0,0-.193.295,4.741,4.741,0,0,0-.483,1.08A11.008,11.008,0,0,1,57.4,21.068q-.29.1-.1-.2a19.914,19.914,0,0,0,2.608-5.3,1.845,1.845,0,0,0-1.739.1q.1,2.848-1.256,3.928-.483.2-.676,0-.1-.687.193-.884A4.709,4.709,0,0,0,57.5,16.06a13.649,13.649,0,0,0-1.545,1.08q-.193.2-.29,0a.248.248,0,0,1,0-.393,7.738,7.738,0,0,1,1.063-1.08l.483-.491a14.378,14.378,0,0,0,2.415-2.455q-.386.1-.966.2-.29,0-.29-.1t.29-.295a12,12,0,0,0,1.932-.884q0-.2.483-.295A1.633,1.633,0,0,1,61.751,11.248Z" transform="translate(-3.559 -0.789)" fill="#fffdfd"/></svg>